<svg width="32" height="33" viewBox="0 0 32 33" fill="none" xmlns="http://www.w3.org/2000/svg">
<rect y="0.437012" width="32" height="32" rx="16" fill="#BB2525"/>
<path fill-rule="evenodd" clip-rule="evenodd" d="M8 16.437C8 13.2413 8 11.6435 8.7615 10.4926C9.10155 9.97869 9.54168 9.53856 10.0556 9.19852C11.2065 8.43701 12.8043 8.43701 16 8.43701C19.1957 8.43701 20.7935 8.43701 21.9444 9.19852C22.4583 9.53856 22.8984 9.97869 23.2385 10.4926C24 11.6435 24 13.2413 24 16.437C24 19.6327 24 21.2305 23.2385 22.3814C22.8984 22.8953 22.4583 23.3355 21.9444 23.6755C20.7935 24.437 19.1957 24.437 16 24.437C12.8043 24.437 11.2065 24.437 10.0556 23.6755C9.54168 23.3355 9.10155 22.8953 8.7615 22.3814C8 21.2305 8 19.6327 8 16.437ZM20.141 16.4371C20.141 18.7244 18.2867 20.5787 15.9993 20.5787C13.7119 20.5787 11.8576 18.7244 11.8576 16.4371C11.8576 14.1497 13.7119 12.2954 15.9993 12.2954C18.2867 12.2954 20.141 14.1497 20.141 16.4371ZM15.9993 19.1775C17.5128 19.1775 18.7398 17.9506 18.7398 16.4371C18.7398 14.9235 17.5128 13.6966 15.9993 13.6966C14.4858 13.6966 13.2589 14.9235 13.2589 16.4371C13.2589 17.9506 14.4858 19.1775 15.9993 19.1775ZM20.3046 13.0604C20.8421 13.0604 21.2778 12.6247 21.2778 12.0873C21.2778 11.5498 20.8421 11.1141 20.3046 11.1141C19.7671 11.1141 19.3314 11.5498 19.3314 12.0873C19.3314 12.6247 19.7671 13.0604 20.3046 13.0604Z" fill="white"/>
</svg>
