<svg width="32" height="33" viewBox="0 0 32 33" fill="none" xmlns="http://www.w3.org/2000/svg">
<rect y="0.437012" width="32" height="32" rx="16" fill="#BB2525"/>
<path d="M8 10.588C8 10.0749 8.18019 9.65159 8.54054 9.31811C8.9009 8.98461 9.36937 8.81787 9.94595 8.81787C10.5122 8.81787 10.9704 8.98204 11.3205 9.31042C11.6808 9.64904 11.861 10.0903 11.861 10.6341C11.861 11.1267 11.686 11.5371 11.3359 11.8655C10.9756 12.2041 10.5019 12.3734 9.91506 12.3734H9.89961C9.33333 12.3734 8.87517 12.2041 8.5251 11.8655C8.17503 11.5269 8 11.101 8 10.588ZM8.20077 24.056V13.7741H11.6293V24.056H8.20077ZM13.529 24.056H16.9575V18.3147C16.9575 17.9556 16.9987 17.6785 17.0811 17.4836C17.2252 17.1347 17.444 16.8397 17.7375 16.5985C18.0309 16.3574 18.399 16.2368 18.8417 16.2368C19.9949 16.2368 20.5714 17.0115 20.5714 18.561V24.056H24V18.1608C24 16.6421 23.6396 15.4903 22.9189 14.7053C22.1982 13.9203 21.2458 13.5278 20.0618 13.5278C18.7336 13.5278 17.6988 14.0973 16.9575 15.2363V15.2671H16.9421L16.9575 15.2363V13.7741H13.529C13.5495 14.1025 13.5598 15.1235 13.5598 16.8371C13.5598 18.5507 13.5495 20.957 13.529 24.056Z" fill="white"/>
</svg>
