<svg width="173" height="65" viewBox="0 0 173 65" fill="none" xmlns="http://www.w3.org/2000/svg">
<g clip-path="url(#clip0_108_7441)">
<path d="M50.5787 30.9079L16.3838 11.1011V50.7126L50.5787 30.9079Z" fill="white"/>
<path d="M39.9975 33.3422L34.57 36.4855L29.8153 39.2388L23.7747 42.7378C23.0271 43.1706 22.2026 43.2134 21.4828 42.967C21.3397 42.9199 21.2009 42.8599 21.0684 42.7892C20.2696 42.3649 19.6715 41.5636 19.5839 40.5608C19.5754 40.4773 19.5732 40.3915 19.5732 40.3037V21.5125C19.5732 19.6119 21.376 18.3371 23.0805 18.7892C23.3155 18.8513 23.5504 18.9477 23.7769 19.0784C23.7769 19.0784 23.7769 19.0784 23.779 19.0806L24.1848 19.3141L25.1332 19.8648L39.9975 28.474C41.8665 29.5561 41.8665 32.2601 39.9975 33.3422Z" fill="#D22522"/>
<path d="M39.9971 33.3421C39.9971 33.3421 39.9971 33.3421 39.995 33.3421L34.5696 36.4854L29.8149 39.2388L23.7743 42.7377C23.0267 43.1706 22.2022 43.2134 21.4824 42.9692C20.8843 42.5149 20.4593 41.8207 20.3867 40.9872C20.3781 40.9036 20.376 40.8179 20.376 40.7301V21.9389C20.376 20.0362 22.1787 18.7634 23.8833 19.2155C23.9836 19.2434 24.084 19.2755 24.1823 19.3141L25.1328 19.8648L39.9971 28.474C41.8661 29.5561 41.8661 32.2601 39.9971 33.3421Z" fill="#FFAE00"/>
<path d="M38.8481 8.77439L50.5789 30.9082L50.5768 30.906L9.58301 7.13954L11.1359 6.86527L28.621 3.77126C32.752 3.04061 36.8808 5.059 38.8481 8.77439Z" fill="#FFAE00"/>
<path d="M57.401 26.9805L56.6257 29.1189L50.7902 45.206C49.3569 49.1592 45.5463 51.7347 41.3577 51.589L16.3838 50.7127L16.3881 50.7105L57.401 26.9805Z" fill="#D22522"/>
<path d="M16.3819 11.1035L16.3691 42.9564L16.3606 58.6022L15.0854 57.0788L11.4564 52.7377L5.22356 45.2898L3.93343 43.7471C1.23782 40.5245 0.917423 35.9285 3.14098 32.3609L7.01138 26.1451L16.3819 11.1035Z" fill="#004AAD"/>
<mask id="mask0_108_7441" style="mask-type:luminance" maskUnits="userSpaceOnUse" x="-53" y="-91" width="248" height="247">
<path d="M194.027 -90.9177H-52.0381V155.918H194.027V-90.9177Z" fill="black" fill-opacity="0.23"/>
</mask>
<g mask="url(#mask0_108_7441)">
<mask id="mask1_108_7441" style="mask-type:luminance" maskUnits="userSpaceOnUse" x="1" y="10" width="16" height="44">
<path d="M16.5871 10.8333H1.27637V53.0695H16.5871V10.8333Z" fill="white"/>
</mask>
<g mask="url(#mask1_108_7441)">
<mask id="mask2_108_7441" style="mask-type:luminance" maskUnits="userSpaceOnUse" x="1" y="11" width="16" height="42">
<path d="M1.53906 11.009H16.4995V52.8725H1.53906V11.009Z" fill="white"/>
</mask>
<g mask="url(#mask2_108_7441)">
<path d="M16.3819 11.1033L11.4564 52.7375L5.22356 45.2896L3.93343 43.7468C1.23782 40.5243 0.917423 35.9282 3.14098 32.3607L16.3819 11.1033Z" fill="white"/>
</g>
</g>
</g>
<mask id="mask3_108_7441" style="mask-type:luminance" maskUnits="userSpaceOnUse" x="-53" y="-91" width="248" height="247">
<path d="M194.027 -90.9177H-52.0381V155.918H194.027V-90.9177Z" fill="black" fill-opacity="0.23"/>
</mask>
<g mask="url(#mask3_108_7441)">
<mask id="mask4_108_7441" style="mask-type:luminance" maskUnits="userSpaceOnUse" x="1" y="10" width="16" height="36">
<path d="M16.5871 10.8333H1.27637V45.3902H16.5871V10.8333Z" fill="white"/>
</mask>
<g mask="url(#mask4_108_7441)">
<mask id="mask5_108_7441" style="mask-type:luminance" maskUnits="userSpaceOnUse" x="1" y="11" width="16" height="35">
<path d="M1.53906 11.009H16.4995V45.3689H1.53906V11.009Z" fill="white"/>
</mask>
<g mask="url(#mask5_108_7441)">
<path d="M16.3819 11.1033L5.22356 45.2896L3.93343 43.7468C1.23782 40.5243 0.917423 35.9282 3.14098 32.3607L16.3819 11.1033Z" fill="white"/>
</g>
</g>
</g>
<mask id="mask6_108_7441" style="mask-type:luminance" maskUnits="userSpaceOnUse" x="-53" y="-91" width="248" height="247">
<path d="M194.027 -90.9177H-52.0381V155.918H194.027V-90.9177Z" fill="black" fill-opacity="0.23"/>
</mask>
<g mask="url(#mask6_108_7441)">
<mask id="mask7_108_7441" style="mask-type:luminance" maskUnits="userSpaceOnUse" x="16" y="3" width="36" height="29">
<path d="M51.036 3.15405H16.5869V31.1287H51.036V3.15405Z" fill="white"/>
</mask>
<g mask="url(#mask7_108_7441)">
<mask id="mask8_108_7441" style="mask-type:luminance" maskUnits="userSpaceOnUse" x="17" y="3" width="34" height="29">
<path d="M17.0244 3.50562H50.6191V31.0196H17.0244V3.50562Z" fill="white"/>
</mask>
<g mask="url(#mask8_108_7441)">
<path d="M50.579 30.908L17.0996 5.80878L26.6453 4.12036L28.6232 3.76896C32.7521 3.03831 36.8809 5.05885 38.8482 8.77209L50.579 30.908Z" fill="white"/>
</g>
</g>
</g>
<mask id="mask9_108_7441" style="mask-type:luminance" maskUnits="userSpaceOnUse" x="-53" y="-91" width="248" height="247">
<path d="M194.027 -90.9177H-52.0381V155.918H194.027V-90.9177Z" fill="black" fill-opacity="0.23"/>
</mask>
<g mask="url(#mask9_108_7441)">
<mask id="mask10_108_7441" style="mask-type:luminance" maskUnits="userSpaceOnUse" x="26" y="3" width="26" height="29">
<path d="M51.0362 3.15405H26.4297V31.1287H51.0362V3.15405Z" fill="white"/>
</mask>
<g mask="url(#mask10_108_7441)">
<mask id="mask11_108_7441" style="mask-type:luminance" maskUnits="userSpaceOnUse" x="26" y="3" width="25" height="29">
<path d="M26.4727 3.50562H50.6199V31.0196H26.4727V3.50562Z" fill="white"/>
</mask>
<g mask="url(#mask11_108_7441)">
<path d="M50.5792 30.9082L26.6455 4.12052L28.6234 3.77126C32.7523 3.04061 36.8811 5.059 38.8484 8.77439L50.5792 30.9082Z" fill="white"/>
</g>
</g>
</g>
<mask id="mask12_108_7441" style="mask-type:luminance" maskUnits="userSpaceOnUse" x="-53" y="-91" width="248" height="247">
<path d="M194.027 -90.9177H-52.0381V155.918H194.027V-90.9177Z" fill="black" fill-opacity="0.23"/>
</mask>
<g mask="url(#mask12_108_7441)">
<mask id="mask13_108_7441" style="mask-type:luminance" maskUnits="userSpaceOnUse" x="16" y="33" width="39" height="19">
<path d="M54.8636 33.8713H16.04V51.9726H54.8636V33.8713Z" fill="white"/>
</mask>
<g mask="url(#mask13_108_7441)">
<mask id="mask14_108_7441" style="mask-type:luminance" maskUnits="userSpaceOnUse" x="16" y="34" width="39" height="18">
<path d="M16.3691 34.0471H54.8211V51.6877H16.3691V34.0471Z" fill="white"/>
</mask>
<g mask="url(#mask14_108_7441)">
<path d="M16.3818 50.7129L54.791 34.1758L51.476 43.3143L50.7882 45.2084C49.355 49.1595 45.5465 51.7371 41.3557 51.5893L16.3818 50.7129Z" fill="white"/>
</g>
</g>
</g>
<mask id="mask15_108_7441" style="mask-type:luminance" maskUnits="userSpaceOnUse" x="-53" y="-91" width="248" height="247">
<path d="M194.027 -90.9177H-52.0381V155.918H194.027V-90.9177Z" fill="black" fill-opacity="0.23"/>
</mask>
<g mask="url(#mask15_108_7441)">
<mask id="mask16_108_7441" style="mask-type:luminance" maskUnits="userSpaceOnUse" x="16" y="42" width="36" height="10">
<path d="M51.5828 42.6477H16.04V51.9726H51.5828V42.6477Z" fill="white"/>
</mask>
<g mask="url(#mask16_108_7441)">
<mask id="mask17_108_7441" style="mask-type:luminance" maskUnits="userSpaceOnUse" x="16" y="43" width="36" height="9">
<path d="M16.3691 43.1963H51.5402V51.6877H16.3691V43.1963Z" fill="white"/>
</mask>
<g mask="url(#mask17_108_7441)">
<path d="M16.3818 50.7128L51.476 43.3142L50.7882 45.2062C49.355 49.1594 45.5465 51.7349 41.3557 51.5892L16.3818 50.7128Z" fill="white"/>
</g>
</g>
</g>
<mask id="mask18_108_7441" style="mask-type:luminance" maskUnits="userSpaceOnUse" x="-53" y="-91" width="248" height="247">
<path d="M194.027 -90.9177H-52.0381V155.918H194.027V-90.9177Z" fill="black" fill-opacity="0.46"/>
</mask>
<g mask="url(#mask18_108_7441)">
<mask id="mask19_108_7441" style="mask-type:luminance" maskUnits="userSpaceOnUse" x="8" y="6" width="44" height="26">
<path d="M51.0361 6.44507H8.93164V31.1286H51.0361V6.44507Z" fill="white"/>
</mask>
<g mask="url(#mask19_108_7441)">
<mask id="mask20_108_7441" style="mask-type:luminance" maskUnits="userSpaceOnUse" x="9" y="6" width="42" height="26">
<path d="M9.47852 6.79639H50.6196V31.0193H9.47852V6.79639Z" fill="white"/>
</mask>
<g mask="url(#mask20_108_7441)">
<path d="M50.5789 30.9057H50.5768L9.58301 7.1392L11.1359 6.86279L50.5789 30.9057Z" fill="white"/>
</g>
</g>
</g>
<mask id="mask21_108_7441" style="mask-type:luminance" maskUnits="userSpaceOnUse" x="-53" y="-91" width="248" height="247">
<path d="M194.027 -90.9177H-52.0381V155.918H194.027V-90.9177Z" fill="black" fill-opacity="0.46"/>
</mask>
<g mask="url(#mask21_108_7441)">
<mask id="mask22_108_7441" style="mask-type:luminance" maskUnits="userSpaceOnUse" x="14" y="10" width="3" height="50">
<path d="M16.5867 10.8333H14.3994V59.1033H16.5867V10.8333Z" fill="white"/>
</mask>
<g mask="url(#mask22_108_7441)">
<mask id="mask23_108_7441" style="mask-type:luminance" maskUnits="userSpaceOnUse" x="14" y="11" width="3" height="48">
<path d="M14.9463 11.009H16.4991V58.6641H14.9463V11.009Z" fill="white"/>
</mask>
<g mask="url(#mask23_108_7441)">
<path d="M16.3815 11.1033L16.3601 58.602L15.085 57.0785L16.3815 11.1033Z" fill="white"/>
</g>
</g>
</g>
<mask id="mask24_108_7441" style="mask-type:luminance" maskUnits="userSpaceOnUse" x="-53" y="-91" width="248" height="247">
<path d="M194.027 -90.9177H-52.0381V155.918H194.027V-90.9177Z" fill="black" fill-opacity="0.46"/>
</mask>
<g mask="url(#mask24_108_7441)">
<mask id="mask25_108_7441" style="mask-type:luminance" maskUnits="userSpaceOnUse" x="16" y="26" width="42" height="25">
<path d="M57.5977 26.7405H16.04V50.8755H57.5977V26.7405Z" fill="white"/>
</mask>
<g mask="url(#mask25_108_7441)">
<mask id="mask26_108_7441" style="mask-type:luminance" maskUnits="userSpaceOnUse" x="16" y="26" width="42" height="25">
<path d="M16.3691 26.9375H57.4441V50.7661H16.3691V26.9375Z" fill="white"/>
</mask>
<g mask="url(#mask26_108_7441)">
<path d="M57.401 26.9805L56.6257 29.1189L16.3838 50.7127L16.3881 50.7105L57.401 26.9805Z" fill="white"/>
</g>
</g>
</g>
<mask id="mask27_108_7441" style="mask-type:luminance" maskUnits="userSpaceOnUse" x="-53" y="-91" width="248" height="247">
<path d="M194.027 -90.9177H-52.0381V155.918H194.027V-90.9177Z" fill="black" fill-opacity="0.23"/>
</mask>
<g mask="url(#mask27_108_7441)">
<mask id="mask28_108_7441" style="mask-type:luminance" maskUnits="userSpaceOnUse" x="19" y="18" width="23" height="20">
<path d="M41.7396 18.5125H19.3203V37.7108H41.7396V18.5125Z" fill="white"/>
</mask>
<g mask="url(#mask28_108_7441)">
<mask id="mask29_108_7441" style="mask-type:luminance" maskUnits="userSpaceOnUse" x="19" y="18" width="8" height="3">
<path d="M19.7793 18.6433H26.4286V20.7067H19.7793V18.6433Z" fill="white"/>
</mask>
<g mask="url(#mask29_108_7441)">
<path d="M22.7743 19.9932C23.9854 19.9932 25.1538 20.1754 26.2538 20.5139L25.1324 19.8647L23.7782 19.0805C23.7761 19.0783 23.7761 19.0783 23.7761 19.0783C23.5475 18.9476 23.3147 18.8512 23.0798 18.7891C21.7469 18.4355 20.3564 19.1362 19.8096 20.3682C20.7579 20.1239 21.7512 19.9932 22.7743 19.9932Z" fill="white"/>
</g>
<mask id="mask30_108_7441" style="mask-type:luminance" maskUnits="userSpaceOnUse" x="30" y="22" width="12" height="16">
<path d="M30.8027 22.9006H41.5638V37.1622H30.8027V22.9006Z" fill="white"/>
</mask>
<g mask="url(#mask30_108_7441)">
<path d="M39.9964 28.4739L30.8672 23.1858C33.2018 25.3627 34.6607 28.4696 34.6607 31.9193C34.6607 33.7834 34.2356 35.5468 33.4752 37.1174L34.5688 36.4853L39.9964 33.342C41.8654 32.26 41.8654 29.5559 39.9964 28.4739Z" fill="white"/>
</g>
</g>
</g>
<mask id="mask31_108_7441" style="mask-type:luminance" maskUnits="userSpaceOnUse" x="-53" y="-91" width="248" height="247">
<path d="M194.027 -90.9177H-52.0381V155.918H194.027V-90.9177Z" fill="black" fill-opacity="0.23"/>
</mask>
<g mask="url(#mask31_108_7441)">
<mask id="mask32_108_7441" style="mask-type:luminance" maskUnits="userSpaceOnUse" x="19" y="35" width="9" height="9">
<path d="M27.5225 35.5168H19.3203V43.7447H27.5225V35.5168Z" fill="white"/>
</mask>
<g mask="url(#mask32_108_7441)">
<mask id="mask33_108_7441" style="mask-type:luminance" maskUnits="userSpaceOnUse" x="19" y="35" width="8" height="9">
<path d="M19.5166 35.6262H26.9754V43.1963H19.5166V35.6262Z" fill="white"/>
</mask>
<g mask="url(#mask33_108_7441)">
<path d="M19.5703 35.7527V40.3037C19.5703 40.3916 19.5746 40.4773 19.5831 40.5608C19.7583 42.5707 21.9818 43.7748 23.7739 42.7378L26.8711 40.9422C23.7141 40.4387 21.0441 38.4696 19.5703 35.7527Z" fill="white"/>
</g>
</g>
</g>
<mask id="mask34_108_7441" style="mask-type:luminance" maskUnits="userSpaceOnUse" x="-53" y="-91" width="248" height="247">
<path d="M194.027 -90.9177H-52.0381V155.918H194.027V-90.9177Z" fill="black" fill-opacity="0.23"/>
</mask>
<g mask="url(#mask34_108_7441)">
<mask id="mask35_108_7441" style="mask-type:luminance" maskUnits="userSpaceOnUse" x="1" y="25" width="16" height="35">
<path d="M16.5871 25.6433H1.27637V59.1032H16.5871V25.6433Z" fill="white"/>
</mask>
<g mask="url(#mask35_108_7441)">
<mask id="mask36_108_7441" style="mask-type:luminance" maskUnits="userSpaceOnUse" x="1" y="26" width="16" height="33">
<path d="M1.53906 26.0161H16.4995V58.664H1.53906V26.0161Z" fill="white"/>
</mask>
<g mask="url(#mask36_108_7441)">
<path d="M16.3691 42.9562L16.3606 58.6019L15.0854 57.0785L11.4564 52.7374L5.22356 45.2895L3.93343 43.7468C1.23782 40.5242 0.917423 35.9282 3.14098 32.3607L7.01138 26.1448C5.69348 30.3101 5.40512 35.4097 8.68171 40.2285C11.3773 44.1946 14.058 44.3489 16.3691 42.9562Z" fill="white"/>
</g>
</g>
</g>
<mask id="mask37_108_7441" style="mask-type:luminance" maskUnits="userSpaceOnUse" x="-53" y="-91" width="248" height="247">
<path d="M194.027 -90.9177H-52.0381V155.918H194.027V-90.9177Z" fill="black" fill-opacity="0.23"/>
</mask>
<g mask="url(#mask37_108_7441)">
<mask id="mask38_108_7441" style="mask-type:luminance" maskUnits="userSpaceOnUse" x="8" y="3" width="35" height="13">
<path d="M42.8339 3.15405H8.93164V15.7701H42.8339V3.15405Z" fill="white"/>
</mask>
<g mask="url(#mask38_108_7441)">
<mask id="mask39_108_7441" style="mask-type:luminance" maskUnits="userSpaceOnUse" x="9" y="3" width="34" height="13">
<path d="M9.47852 3.50537H42.2872V15.3522H9.47852V3.50537Z" fill="white"/>
</mask>
<g mask="url(#mask39_108_7441)">
<path d="M23.0867 14.9665L9.58301 7.13938L11.5353 6.79227L17.0995 5.80878L26.6452 4.12036L28.6231 3.76896C32.752 3.03831 36.8808 5.05885 38.8481 8.77209L42.2785 15.2451C39.3415 12.0161 35.0824 9.21562 29.2853 9.65273C24.5114 10.0106 23.0397 12.2646 23.0867 14.9665Z" fill="white"/>
</g>
</g>
</g>
<mask id="mask40_108_7441" style="mask-type:luminance" maskUnits="userSpaceOnUse" x="-53" y="-91" width="248" height="247">
<path d="M194.027 -90.9177H-52.0381V155.918H194.027V-90.9177Z" fill="black" fill-opacity="0.23"/>
</mask>
<g mask="url(#mask40_108_7441)">
<mask id="mask41_108_7441" style="mask-type:luminance" maskUnits="userSpaceOnUse" x="33" y="26" width="25" height="26">
<path d="M57.5978 26.7405H33.5381V51.9725H57.5978V26.7405Z" fill="white"/>
</mask>
<g mask="url(#mask41_108_7441)">
<mask id="mask42_108_7441" style="mask-type:luminance" maskUnits="userSpaceOnUse" x="33" y="26" width="25" height="26">
<path d="M33.9551 26.9377H57.4445V51.6877H33.9551V26.9377Z" fill="white"/>
</mask>
<g mask="url(#mask42_108_7441)">
<path d="M43.8919 34.7972L57.4019 26.9807L56.7248 28.8513L54.7918 34.1758L51.4767 43.3143L50.7911 45.2063C49.3557 49.1595 45.5472 51.735 41.3564 51.5893L34.0557 51.3321C38.3105 50.3958 42.858 48.0967 45.3806 42.8407C47.4568 38.5147 46.25 36.1106 43.8919 34.7972Z" fill="white"/>
</g>
</g>
</g>
<mask id="mask43_108_7441" style="mask-type:luminance" maskUnits="userSpaceOnUse" x="-53" y="-91" width="248" height="247">
<path d="M194.027 -90.9177H-52.0381V155.918H194.027V-90.9177Z" fill="black" fill-opacity="0.32"/>
</mask>
<g mask="url(#mask43_108_7441)">
<mask id="mask44_108_7441" style="mask-type:luminance" maskUnits="userSpaceOnUse" x="20" y="32" width="21" height="12">
<path d="M40.6461 32.7742H20.9609V43.7446H40.6461V32.7742Z" fill="white"/>
</mask>
<g mask="url(#mask44_108_7441)">
<path d="M39.9964 33.342L34.5689 36.4853L29.8142 39.2387L23.7737 42.7376C22.8766 43.2583 21.8705 43.2155 21.0674 42.7891L39.9964 33.342Z" fill="white"/>
</g>
</g>
<mask id="mask45_108_7441" style="mask-type:luminance" maskUnits="userSpaceOnUse" x="-53" y="-91" width="248" height="247">
<path d="M194.027 -90.9177H-52.0381V155.918H194.027V-90.9177Z" fill="black" fill-opacity="0.18"/>
</mask>
<g mask="url(#mask45_108_7441)">
<mask id="mask46_108_7441" style="mask-type:luminance" maskUnits="userSpaceOnUse" x="20" y="20" width="17" height="18">
<path d="M36.2717 20.1584H20.9609V37.7112H36.2717V20.1584Z" fill="white"/>
</mask>
<g mask="url(#mask46_108_7441)">
<mask id="mask47_108_7441" style="mask-type:luminance" maskUnits="userSpaceOnUse" x="20" y="20" width="16" height="18">
<path d="M20.9609 20.3555H35.9213V37.469H20.9609V20.3555Z" fill="white"/>
</mask>
<g mask="url(#mask47_108_7441)">
<path d="M34.8573 30.4497L34.2165 30.8204L31.0424 32.6567L27.7017 34.5936L23.4554 37.0513C22.93 37.3555 22.3511 37.3855 21.8449 37.2141C21.4241 36.8949 21.1251 36.4063 21.0738 35.8214C21.0695 35.7635 21.0674 35.7035 21.0674 35.6414V22.4361C21.0674 21.0991 22.334 20.2035 23.5323 20.5206C23.6028 20.5399 23.6733 20.5634 23.7416 20.5913L24.4102 20.977L34.8573 27.0279C36.1688 27.7885 36.1688 29.6891 34.8573 30.4497Z" fill="white"/>
</g>
</g>
</g>
<mask id="mask48_108_7441" style="mask-type:luminance" maskUnits="userSpaceOnUse" x="-53" y="-91" width="248" height="247">
<path d="M194.027 -90.9177H-52.0381V155.918H194.027V-90.9177Z" fill="black" fill-opacity="0.32"/>
</mask>
<g mask="url(#mask48_108_7441)">
<mask id="mask49_108_7441" style="mask-type:luminance" maskUnits="userSpaceOnUse" x="20" y="19" width="17" height="19">
<path d="M36.2717 19.6096H20.9609V37.1624H36.2717V19.6096Z" fill="white"/>
</mask>
<g mask="url(#mask49_108_7441)">
<mask id="mask50_108_7441" style="mask-type:luminance" maskUnits="userSpaceOnUse" x="20" y="19" width="16" height="18">
<path d="M20.9609 19.8281H35.9213V36.9438H20.9609V19.8281Z" fill="white"/>
</mask>
<g mask="url(#mask50_108_7441)">
<path d="M34.8573 29.9116L31.0424 32.1207L27.7017 34.0577L23.4554 36.5153C22.93 36.8196 22.3511 36.8496 21.8449 36.6781C21.4241 36.361 21.1251 35.8725 21.0738 35.2876C21.0695 35.2276 21.0674 35.1676 21.0674 35.1054V21.898C21.0674 20.5631 22.334 19.6654 23.5323 19.9846C23.6028 20.0039 23.6733 20.0253 23.7416 20.0532L24.4102 20.441L34.8573 26.4919C36.1688 27.2525 36.1688 29.1531 34.8573 29.9116Z" fill="white"/>
</g>
</g>
</g>
<mask id="mask51_108_7441" style="mask-type:luminance" maskUnits="userSpaceOnUse" x="-53" y="-91" width="248" height="247">
<path d="M194.027 -90.9177H-52.0381V155.918H194.027V-90.9177Z" fill="black" fill-opacity="0.32"/>
</mask>
<g mask="url(#mask51_108_7441)">
<mask id="mask52_108_7441" style="mask-type:luminance" maskUnits="userSpaceOnUse" x="7" y="5" width="44" height="44">
<path d="M50.4891 5.34814H7.29102V48.6815H50.4891V5.34814Z" fill="white"/>
</mask>
<g mask="url(#mask52_108_7441)">
<mask id="mask53_108_7441" style="mask-type:luminance" maskUnits="userSpaceOnUse" x="7" y="27" width="2" height="3">
<path d="M7.3125 27.8376H8.93157V29.4832H7.3125V27.8376Z" fill="white"/>
</mask>
<g mask="url(#mask53_108_7441)">
<path d="M8.67104 28.6198C8.67104 28.7377 8.62832 28.8362 8.54716 28.9198C8.46385 29.0033 8.3656 29.0441 8.24812 29.0441C8.13064 29.0441 8.03239 29.0033 7.94908 28.9198C7.86792 28.8362 7.8252 28.7377 7.8252 28.6198C7.8252 28.5041 7.86792 28.4034 7.94908 28.3198C8.03239 28.2384 8.13064 28.1956 8.24812 28.1956C8.3656 28.1956 8.46385 28.2384 8.54716 28.3198C8.62832 28.4034 8.67104 28.5041 8.67104 28.6198Z" fill="white"/>
</g>
<path d="M13.1291 35.7334C13.1291 35.8577 13.1056 35.9777 13.0586 36.0934C13.0095 36.2091 12.9433 36.3098 12.8536 36.3976C12.766 36.4876 12.6656 36.5541 12.5503 36.6012C12.4349 36.6505 12.3153 36.674 12.1914 36.674C12.0675 36.674 11.9479 36.6505 11.8326 36.6012C11.7194 36.5541 11.6168 36.4876 11.5293 36.3976C11.4417 36.3098 11.3733 36.2091 11.3263 36.0934C11.2794 35.9777 11.2559 35.8577 11.2559 35.7334C11.2559 35.6091 11.2794 35.4891 11.3263 35.3734C11.3733 35.2599 11.4417 35.157 11.5293 35.0692C11.6168 34.9813 11.7194 34.9128 11.8326 34.8656C11.9479 34.8185 12.0675 34.7949 12.1914 34.7949C12.3153 34.7949 12.4349 34.8185 12.5503 34.8656C12.6656 34.9128 12.766 34.9813 12.8536 35.0692C12.9433 35.157 13.0095 35.2599 13.0586 35.3734C13.1056 35.4891 13.1291 35.6091 13.1291 35.7334Z" fill="white"/>
<mask id="mask54_108_7441" style="mask-type:luminance" maskUnits="userSpaceOnUse" x="7" y="43" width="3" height="4">
<path d="M7.3125 43.7449H9.47838V46.4875H7.3125V43.7449Z" fill="white"/>
</mask>
<g mask="url(#mask54_108_7441)">
<path d="M9.47199 45.1954C9.47199 45.3325 9.44636 45.4632 9.39296 45.5896C9.34169 45.716 9.26693 45.8275 9.17082 45.9239C9.0747 46.0224 8.96363 46.0953 8.8376 46.1489C8.71158 46.2003 8.57915 46.226 8.44245 46.226C8.30574 46.226 8.17545 46.2003 8.04943 46.1489C7.9234 46.0953 7.81233 46.0224 7.71621 45.9239C7.61796 45.8275 7.54533 45.716 7.49193 45.5896C7.44067 45.4632 7.41504 45.3325 7.41504 45.1954C7.41504 45.0582 7.44067 44.9254 7.49193 44.799C7.54533 44.6726 7.61796 44.5611 7.71621 44.4647C7.81233 44.3683 7.9234 44.2933 8.04943 44.2419C8.17545 44.1883 8.30574 44.1626 8.44245 44.1626C8.57915 44.1626 8.71158 44.1883 8.8376 44.2419C8.96363 44.2933 9.0747 44.3683 9.17082 44.4647C9.26693 44.5611 9.34169 44.6726 9.39296 44.799C9.44636 44.9254 9.47199 45.0582 9.47199 45.1954Z" fill="white"/>
</g>
<path d="M41.7022 46.7082C41.7022 46.841 41.6552 46.9546 41.5612 47.0489C41.4673 47.1431 41.3541 47.1903 41.2216 47.1903C41.0892 47.1903 40.976 47.1431 40.882 47.0489C40.7902 46.9546 40.7432 46.841 40.7432 46.7082C40.7432 46.5753 40.7902 46.4618 40.882 46.3675C40.976 46.2732 41.0892 46.2261 41.2216 46.2261C41.3541 46.2261 41.4673 46.2732 41.5612 46.3675C41.6552 46.4618 41.7022 46.5753 41.7022 46.7082Z" fill="white"/>
<path d="M48.4815 36.7403C48.4815 36.8453 48.4452 36.9332 48.3726 37.0082C48.2978 37.081 48.2081 37.1174 48.1056 37.1174C48.0009 37.1174 47.9112 37.081 47.8386 37.0082C47.7639 36.9332 47.7275 36.8453 47.7275 36.7403C47.7275 36.6353 47.7639 36.5454 47.8386 36.4725C47.9112 36.3997 48.0009 36.3611 48.1056 36.3611C48.2081 36.3611 48.2978 36.3997 48.3726 36.4725C48.4452 36.5454 48.4815 36.6353 48.4815 36.7403Z" fill="white"/>
<mask id="mask55_108_7441" style="mask-type:luminance" maskUnits="userSpaceOnUse" x="47" y="44" width="4" height="4">
<path d="M47.208 44.2935H50.0959V47.0361H47.208V44.2935Z" fill="white"/>
</mask>
<g mask="url(#mask55_108_7441)">
<path d="M49.9886 45.5878C49.9886 45.7377 49.9608 45.8835 49.9031 46.0227C49.8455 46.162 49.7643 46.2841 49.6575 46.3913C49.5507 46.4963 49.4289 46.5798 49.2901 46.6355C49.1513 46.6934 49.0082 46.7234 48.8586 46.7234C48.707 46.7234 48.5639 46.6934 48.425 46.6355C48.2862 46.5798 48.1644 46.4963 48.0576 46.3913C47.9508 46.2841 47.8697 46.162 47.812 46.0227C47.7543 45.8835 47.7266 45.7377 47.7266 45.5878C47.7266 45.4378 47.7543 45.2921 47.812 45.1528C47.8697 45.0135 47.9508 44.8914 48.0576 44.7843C48.1644 44.6793 48.2862 44.5957 48.425 44.5379C48.5639 44.4821 48.707 44.4521 48.8586 44.4521C49.0082 44.4521 49.1513 44.4821 49.2901 44.5379C49.4289 44.5957 49.5507 44.6793 49.6575 44.7843C49.7643 44.8914 49.8455 45.0135 49.9031 45.1528C49.9608 45.2921 49.9886 45.4378 49.9886 45.5878Z" fill="white"/>
</g>
<mask id="mask56_108_7441" style="mask-type:luminance" maskUnits="userSpaceOnUse" x="30" y="47" width="2" height="2">
<path d="M30.8037 47.0361H31.8973V48.5274H30.8037V47.0361Z" fill="white"/>
</mask>
<g mask="url(#mask56_108_7441)">
<path d="M31.8949 47.9598C31.8949 48.1012 31.8458 48.219 31.7475 48.3176C31.6493 48.4162 31.5296 48.4654 31.3908 48.4654C31.252 48.4654 31.1324 48.4162 31.0341 48.3176C30.9358 48.219 30.8867 48.1012 30.8867 47.9598C30.8867 47.8205 30.9358 47.7027 31.0341 47.6019C31.1324 47.5034 31.252 47.4541 31.3908 47.4541C31.5296 47.4541 31.6493 47.5034 31.7475 47.6019C31.8458 47.7027 31.8949 47.8205 31.8949 47.9598Z" fill="white"/>
</g>
<path d="M24.7169 5.96952C24.7169 6.09165 24.6742 6.19664 24.5866 6.28235C24.5012 6.36806 24.3987 6.41091 24.2769 6.41091C24.1552 6.41091 24.0526 6.36806 23.9651 6.28235C23.8796 6.19664 23.8369 6.09165 23.8369 5.96952C23.8369 5.84739 23.8796 5.74454 23.9651 5.65883C24.0526 5.57313 24.1552 5.53027 24.2769 5.53027C24.3987 5.53027 24.5012 5.57313 24.5866 5.65883C24.6742 5.74454 24.7169 5.84739 24.7169 5.96952Z" fill="white"/>
<path d="M34.497 14.088C34.497 14.2316 34.4457 14.3516 34.3453 14.4523C34.247 14.553 34.1253 14.6023 33.9843 14.6023C33.8433 14.6023 33.7216 14.553 33.6212 14.4523C33.5229 14.3516 33.4717 14.2316 33.4717 14.088C33.4717 13.9466 33.5229 13.8266 33.6212 13.7259C33.7216 13.6252 33.8433 13.5759 33.9843 13.5759C34.1253 13.5759 34.247 13.6252 34.3453 13.7259C34.4457 13.8266 34.497 13.9466 34.497 14.088Z" fill="white"/>
<path d="M42.9707 21.6646C42.9707 21.7182 42.9536 21.7632 42.9151 21.7996C42.8788 21.836 42.834 21.8553 42.7827 21.8553C42.7293 21.8553 42.6866 21.836 42.6481 21.7996C42.6118 21.7632 42.5947 21.7182 42.5947 21.6646C42.5947 21.6132 42.6118 21.5682 42.6481 21.5318C42.6866 21.4954 42.7293 21.4761 42.7827 21.4761C42.834 21.4761 42.8788 21.4954 42.9151 21.5318C42.9536 21.5682 42.9707 21.6132 42.9707 21.6646Z" fill="white"/>
<path d="M24.7892 11.1077C24.7892 11.232 24.7657 11.352 24.7187 11.4677C24.6696 11.5834 24.6034 11.6862 24.5137 11.7762C24.4261 11.8641 24.3236 11.9326 24.2082 11.9798C24.0929 12.0291 23.9733 12.0526 23.8472 12.0526C23.7234 12.0526 23.6016 12.0291 23.4863 11.9798C23.3709 11.9326 23.2705 11.8641 23.1808 11.7762C23.0932 11.6862 23.0249 11.5834 22.9779 11.4677C22.9288 11.352 22.9053 11.232 22.9053 11.1077C22.9053 10.9813 22.9288 10.8613 22.9779 10.7456C23.0249 10.6299 23.0932 10.527 23.1808 10.4392C23.2705 10.3492 23.3709 10.2806 23.4863 10.2335C23.6016 10.1864 23.7234 10.1606 23.8472 10.1606C23.9733 10.1606 24.0929 10.1864 24.2082 10.2335C24.3236 10.2806 24.4261 10.3492 24.5137 10.4392C24.6034 10.527 24.6696 10.6299 24.7187 10.7456C24.7657 10.8613 24.7892 10.9813 24.7892 11.1077Z" fill="white"/>
<path d="M31.9255 17.1029C31.9255 17.2486 31.8742 17.3729 31.7695 17.4779C31.667 17.5807 31.5431 17.6322 31.3979 17.6322C31.2505 17.6322 31.1266 17.5807 31.0241 17.4779C30.9194 17.3729 30.8682 17.2486 30.8682 17.1029C30.8682 16.9551 30.9194 16.8308 31.0241 16.7279C31.1266 16.623 31.2505 16.5715 31.3979 16.5715C31.5431 16.5715 31.667 16.623 31.7695 16.7279C31.8742 16.8308 31.9255 16.9551 31.9255 17.1029Z" fill="white"/>
</g>
</g>
<mask id="mask57_108_7441" style="mask-type:luminance" maskUnits="userSpaceOnUse" x="-53" y="-91" width="248" height="247">
<path d="M194.027 -90.9177H-52.0381V155.918H194.027V-90.9177Z" fill="black" fill-opacity="0.77"/>
</mask>
<g mask="url(#mask57_108_7441)">
<mask id="mask58_108_7441" style="mask-type:luminance" maskUnits="userSpaceOnUse" x="20" y="26" width="11" height="12">
<path d="M30.2567 26.7405H20.9609V37.7109H30.2567V26.7405Z" fill="white"/>
</mask>
<g mask="url(#mask58_108_7441)">
<mask id="mask59_108_7441" style="mask-type:luminance" maskUnits="userSpaceOnUse" x="20" y="26" width="10" height="12">
<path d="M20.9609 26.9375H29.8851V37.4687H20.9609V26.9375Z" fill="white"/>
</mask>
<g mask="url(#mask59_108_7441)">
<mask id="mask60_108_7441" style="mask-type:luminance" maskUnits="userSpaceOnUse" x="-77" y="-116" width="296" height="297">
<path d="M218.634 -115.602H-76.6445V180.601H218.634V-115.602Z" fill="black" fill-opacity="0.32"/>
</mask>
<g mask="url(#mask60_108_7441)">
<mask id="mask61_108_7441" style="mask-type:luminance" maskUnits="userSpaceOnUse" x="20" y="26" width="11" height="12">
<path d="M30.2567 26.7402H20.9609V37.7107H30.2567V26.7402Z" fill="white"/>
</mask>
<g mask="url(#mask61_108_7441)">
<mask id="mask62_108_7441" style="mask-type:luminance" maskUnits="userSpaceOnUse" x="20" y="26" width="10" height="12">
<path d="M20.9609 26.9373H29.8851V37.4685H20.9609V26.9373Z" fill="white"/>
</mask>
<g mask="url(#mask62_108_7441)">
<path d="M21.0674 26.9949V35.6405C21.0674 35.7027 21.0695 35.7627 21.0738 35.8205C21.1251 36.4055 21.4241 36.894 21.8449 37.2133C22.3511 37.3847 22.93 37.3547 23.4554 37.0504L27.7017 34.5928L29.7224 33.4229C23.8869 35.9748 21.5651 31.0595 21.0674 26.9949Z" fill="white"/>
</g>
</g>
</g>
</g>
</g>
</g>
<mask id="mask63_108_7441" style="mask-type:luminance" maskUnits="userSpaceOnUse" x="-53" y="-91" width="248" height="247">
<path d="M194.027 -90.9177H-52.0381V155.918H194.027V-90.9177Z" fill="black" fill-opacity="0.32"/>
</mask>
<g mask="url(#mask63_108_7441)">
<mask id="mask64_108_7441" style="mask-type:luminance" maskUnits="userSpaceOnUse" x="19" y="32" width="22" height="12">
<path d="M40.646 32.7742H19.8672V43.7446H40.646V32.7742Z" fill="white"/>
</mask>
<g mask="url(#mask64_108_7441)">
<mask id="mask65_108_7441" style="mask-type:luminance" maskUnits="userSpaceOnUse" x="20" y="33" width="21" height="11">
<path d="M20.3047 33.3225H40.0988V43.1959H20.3047V33.3225Z" fill="white"/>
</mask>
<g mask="url(#mask65_108_7441)">
<path d="M39.994 33.3418L34.5686 36.4851L29.8139 39.2384L23.7733 42.7374C23.0258 43.1702 22.2013 43.2131 21.4814 42.9688C20.8834 42.5146 20.4583 41.8203 20.3857 40.9868C20.3771 40.9033 20.375 40.8176 20.375 40.7297V39.3627C21.3832 40.0976 22.778 40.6933 24.3714 40.2005C27.5903 39.2041 39.8039 33.4318 39.994 33.3418Z" fill="white"/>
</g>
</g>
</g>
<path d="M91.6283 35.2219L94.6102 19.6318H100.668L95.8661 44.8296H91.4831L81.2218 29.2053L78.2058 44.8296H72.1396L76.9499 19.6318H81.3329L91.6283 35.2219Z" fill="#D22522"/>
<path d="M107.046 44.8296H100.767L105.577 19.6318H111.857L107.046 44.8296Z" fill="#D22522"/>
<path d="M125.136 45.3007C122.885 45.3007 120.821 44.8036 118.942 43.8094C117.062 42.8109 115.571 41.4096 114.473 39.6098C113.373 37.8099 112.824 35.783 112.824 33.5246C112.824 31.0048 113.456 28.6436 114.721 26.4367C115.99 24.2254 117.746 22.4599 119.984 21.14C122.223 19.8201 124.752 19.1602 127.571 19.1602C129.724 19.1602 131.655 19.5758 133.364 20.4029C135.077 21.2321 136.474 22.3913 137.55 23.8826C138.627 25.3696 139.319 27.0945 139.627 29.0593H133.167C132.74 27.718 132.005 26.6916 130.963 25.9824C129.921 25.2753 128.669 24.9196 127.212 24.9196C125.708 24.9196 124.344 25.3053 123.12 26.0767C121.9 26.8438 120.949 27.8572 120.266 29.1193C119.587 30.377 119.249 31.7141 119.249 33.1304C119.249 34.3303 119.499 35.4166 120.001 36.3872C120.501 37.36 121.242 38.1271 122.223 38.6927C123.207 39.2584 124.369 39.5412 125.708 39.5412C127.285 39.5412 128.641 39.1641 129.775 38.4099C130.914 37.6514 131.83 36.6336 132.527 35.3587H139.054C137.954 38.4099 136.17 40.8311 133.706 42.6181C131.245 44.4072 128.387 45.3007 125.136 45.3007Z" fill="#D22522"/>
<path d="M163.381 44.8296H157.169L156.417 39.9015H147.011L144.362 44.8296H137.646L152.034 19.6318H158.605L163.381 44.8296ZM155.802 34.6391L154.367 25.897L149.599 34.6391H155.802Z" fill="#D22522"/>
</g>
<defs>
<clipPath id="clip0_108_7441">
<rect width="173" height="65" fill="white"/>
</clipPath>
</defs>
</svg>
