<svg width="224" height="80" viewBox="0 0 224 80" fill="none" xmlns="http://www.w3.org/2000/svg">
<g clip-path="url(#clip0_138_3484)">
<path d="M72.2823 38.0407L29.9043 13.6631V62.4157L72.2823 38.0407Z" fill="white"/>
<path d="M59.1684 41.0363L52.442 44.905L46.5495 48.2937L39.0634 52.6002C38.1369 53.1329 37.1151 53.1856 36.223 52.8823C36.0456 52.8243 35.8736 52.7505 35.7094 52.6635C34.7194 52.1413 33.9782 51.155 33.8697 49.9208C33.8591 49.818 33.8564 49.7125 33.8564 49.6044V26.4767C33.8564 24.1376 36.0906 22.5685 38.203 23.1249C38.4942 23.2014 38.7854 23.3201 39.066 23.481C39.066 23.481 39.066 23.481 39.0687 23.4836L39.5716 23.771L40.7469 24.4488L59.1684 35.0448C61.4846 36.3765 61.4846 39.7046 59.1684 41.0363Z" fill="#D22522"/>
<path d="M59.1691 41.0363C59.1691 41.0363 59.1691 41.0363 59.1665 41.0363L52.4428 44.905L46.5502 48.2937L39.0641 52.6002C38.1376 53.1329 37.1158 53.1856 36.2238 52.885C35.4826 52.3259 34.9558 51.4715 34.8658 50.4456C34.8552 50.3428 34.8525 50.2373 34.8525 50.1292V27.0015C34.8525 24.6598 37.0867 23.0933 39.1991 23.6497C39.3236 23.684 39.448 23.7236 39.5697 23.771L40.7477 24.4488L59.1691 35.0448C61.4854 36.3765 61.4854 39.7046 59.1691 41.0363Z" fill="#FFAE00"/>
<path d="M57.745 10.7991L72.283 38.0407L72.2804 38.038L21.4766 8.78697L23.401 8.44942L45.0705 4.6414C50.19 3.74214 55.3069 6.22632 57.745 10.7991Z" fill="#FFAE00"/>
<path d="M80.7372 33.2068L79.7763 35.8386L72.5443 55.6382C70.7681 60.5037 66.0456 63.6736 60.8546 63.4942L29.9043 62.4156L29.9096 62.413L80.7372 33.2068Z" fill="#D22522"/>
<path d="M29.9019 13.6656L29.886 52.8692L29.8754 72.1256L28.295 70.2506L23.7976 64.9077L16.0732 55.7411L14.4744 53.8423C11.1337 49.8761 10.7366 44.2194 13.4923 39.8286L18.2889 32.1783L29.9019 13.6656Z" fill="#004AAD"/>
<mask id="mask0_138_3484" style="mask-type:luminance" maskUnits="userSpaceOnUse" x="-55" y="-112" width="306" height="304">
<path d="M250.059 -111.899H-54.8906V191.899H250.059V-111.899Z" fill="black" fill-opacity="0.23"/>
</mask>
<g mask="url(#mask0_138_3484)">
<mask id="mask1_138_3484" style="mask-type:luminance" maskUnits="userSpaceOnUse" x="11" y="13" width="20" height="53">
<path d="M30.1563 13.3334H11.1816V65.3165H30.1563V13.3334Z" fill="white"/>
</mask>
<g mask="url(#mask1_138_3484)">
<mask id="mask2_138_3484" style="mask-type:luminance" maskUnits="userSpaceOnUse" x="11" y="13" width="20" height="53">
<path d="M11.5068 13.5497H30.0474V65.0739H11.5068V13.5497Z" fill="white"/>
</mask>
<g mask="url(#mask2_138_3484)">
<path d="M29.9019 13.6658L23.7976 64.9079L16.0732 55.7412L14.4744 53.8425C11.1337 49.8762 10.7366 44.2196 13.4923 39.8287L29.9019 13.6658Z" fill="white"/>
</g>
</g>
</g>
<mask id="mask3_138_3484" style="mask-type:luminance" maskUnits="userSpaceOnUse" x="-55" y="-112" width="306" height="304">
<path d="M250.059 -111.899H-54.8906V191.899H250.059V-111.899Z" fill="black" fill-opacity="0.23"/>
</mask>
<g mask="url(#mask3_138_3484)">
<mask id="mask4_138_3484" style="mask-type:luminance" maskUnits="userSpaceOnUse" x="11" y="13" width="20" height="43">
<path d="M30.1563 13.3334H11.1816V55.865H30.1563V13.3334Z" fill="white"/>
</mask>
<g mask="url(#mask4_138_3484)">
<mask id="mask5_138_3484" style="mask-type:luminance" maskUnits="userSpaceOnUse" x="11" y="13" width="20" height="43">
<path d="M11.5068 13.5497H30.0474V55.8387H11.5068V13.5497Z" fill="white"/>
</mask>
<g mask="url(#mask5_138_3484)">
<path d="M29.9019 13.6658L16.0732 55.7412L14.4744 53.8425C11.1337 49.8762 10.7366 44.2196 13.4923 39.8287L29.9019 13.6658Z" fill="white"/>
</g>
</g>
</g>
<mask id="mask6_138_3484" style="mask-type:luminance" maskUnits="userSpaceOnUse" x="-55" y="-112" width="306" height="304">
<path d="M250.059 -111.899H-54.8906V191.899H250.059V-111.899Z" fill="black" fill-opacity="0.23"/>
</mask>
<g mask="url(#mask6_138_3484)">
<mask id="mask7_138_3484" style="mask-type:luminance" maskUnits="userSpaceOnUse" x="30" y="3" width="43" height="36">
<path d="M72.8492 3.88184H30.1562V38.3122H72.8492V3.88184Z" fill="white"/>
</mask>
<g mask="url(#mask7_138_3484)">
<mask id="mask8_138_3484" style="mask-type:luminance" maskUnits="userSpaceOnUse" x="30" y="4" width="43" height="35">
<path d="M30.6992 4.31421H72.3334V38.1776H30.6992V4.31421Z" fill="white"/>
</mask>
<g mask="url(#mask8_138_3484)">
<path d="M72.2832 38.0405L30.792 7.14914L42.622 5.07108L45.0733 4.63859C50.1902 3.73933 55.3071 6.22614 57.7451 10.7963L72.2832 38.0405Z" fill="white"/>
</g>
</g>
</g>
<mask id="mask9_138_3484" style="mask-type:luminance" maskUnits="userSpaceOnUse" x="-55" y="-112" width="306" height="304">
<path d="M250.059 -111.899H-54.8906V191.899H250.059V-111.899Z" fill="black" fill-opacity="0.23"/>
</mask>
<g mask="url(#mask9_138_3484)">
<mask id="mask10_138_3484" style="mask-type:luminance" maskUnits="userSpaceOnUse" x="42" y="3" width="31" height="36">
<path d="M72.8495 3.88196H42.3545V38.3123H72.8495V3.88196Z" fill="white"/>
</mask>
<g mask="url(#mask10_138_3484)">
<mask id="mask11_138_3484" style="mask-type:luminance" maskUnits="userSpaceOnUse" x="42" y="4" width="31" height="35">
<path d="M42.4072 4.31445H72.3331V38.1779H42.4072V4.31445Z" fill="white"/>
</mask>
<g mask="url(#mask11_138_3484)">
<path d="M72.2832 38.0407L42.6221 5.07125L45.0733 4.6414C50.1902 3.74214 55.3071 6.22632 57.7452 10.7991L72.2832 38.0407Z" fill="white"/>
</g>
</g>
</g>
<mask id="mask12_138_3484" style="mask-type:luminance" maskUnits="userSpaceOnUse" x="-55" y="-112" width="306" height="304">
<path d="M250.059 -111.899H-54.8906V191.899H250.059V-111.899Z" fill="black" fill-opacity="0.23"/>
</mask>
<g mask="url(#mask12_138_3484)">
<mask id="mask13_138_3484" style="mask-type:luminance" maskUnits="userSpaceOnUse" x="29" y="41" width="49" height="23">
<path d="M77.5928 41.6877H29.4785V63.9662H77.5928V41.6877Z" fill="white"/>
</mask>
<g mask="url(#mask13_138_3484)">
<mask id="mask14_138_3484" style="mask-type:luminance" maskUnits="userSpaceOnUse" x="29" y="41" width="49" height="23">
<path d="M29.8857 41.9041H77.5395V63.6156H29.8857V41.9041Z" fill="white"/>
</mask>
<g mask="url(#mask14_138_3484)">
<path d="M29.9014 62.4156L77.5021 42.0623L73.3938 53.3096L72.5414 55.6408C70.7652 60.5037 66.0453 63.6762 60.8517 63.4942L29.9014 62.4156Z" fill="white"/>
</g>
</g>
</g>
<mask id="mask15_138_3484" style="mask-type:luminance" maskUnits="userSpaceOnUse" x="-55" y="-112" width="306" height="304">
<path d="M250.059 -111.899H-54.8906V191.899H250.059V-111.899Z" fill="black" fill-opacity="0.23"/>
</mask>
<g mask="url(#mask15_138_3484)">
<mask id="mask16_138_3484" style="mask-type:luminance" maskUnits="userSpaceOnUse" x="29" y="52" width="45" height="12">
<path d="M73.5268 52.4895H29.4785V63.9663H73.5268V52.4895Z" fill="white"/>
</mask>
<g mask="url(#mask16_138_3484)">
<mask id="mask17_138_3484" style="mask-type:luminance" maskUnits="userSpaceOnUse" x="29" y="53" width="45" height="11">
<path d="M29.8857 53.1646H73.4735V63.6155H29.8857V53.1646Z" fill="white"/>
</mask>
<g mask="url(#mask17_138_3484)">
<path d="M29.9014 62.4156L73.3938 53.3096L72.5414 55.6382C70.7652 60.5037 66.0454 63.6735 60.8517 63.4942L29.9014 62.4156Z" fill="white"/>
</g>
</g>
</g>
<mask id="mask18_138_3484" style="mask-type:luminance" maskUnits="userSpaceOnUse" x="-55" y="-112" width="306" height="304">
<path d="M250.059 -111.899H-54.8906V191.899H250.059V-111.899Z" fill="black" fill-opacity="0.46"/>
</mask>
<g mask="url(#mask18_138_3484)">
<mask id="mask19_138_3484" style="mask-type:luminance" maskUnits="userSpaceOnUse" x="20" y="7" width="53" height="32">
<path d="M72.8493 7.93262H20.6689V38.3124H72.8493V7.93262Z" fill="white"/>
</mask>
<g mask="url(#mask19_138_3484)">
<mask id="mask20_138_3484" style="mask-type:luminance" maskUnits="userSpaceOnUse" x="21" y="8" width="52" height="31">
<path d="M21.3467 8.36511H72.3331V38.1779H21.3467V8.36511Z" fill="white"/>
</mask>
<g mask="url(#mask20_138_3484)">
<path d="M72.283 38.0381H72.2804L21.4766 8.78709L23.401 8.4469L72.283 38.0381Z" fill="white"/>
</g>
</g>
</g>
<mask id="mask21_138_3484" style="mask-type:luminance" maskUnits="userSpaceOnUse" x="-55" y="-112" width="306" height="304">
<path d="M250.059 -111.899H-54.8906V191.899H250.059V-111.899Z" fill="black" fill-opacity="0.46"/>
</mask>
<g mask="url(#mask21_138_3484)">
<mask id="mask22_138_3484" style="mask-type:luminance" maskUnits="userSpaceOnUse" x="27" y="13" width="4" height="60">
<path d="M30.157 13.3335H27.4463V72.7428H30.157V13.3335Z" fill="white"/>
</mask>
<g mask="url(#mask22_138_3484)">
<mask id="mask23_138_3484" style="mask-type:luminance" maskUnits="userSpaceOnUse" x="28" y="13" width="3" height="60">
<path d="M28.124 13.5497H30.0485V72.2021H28.124V13.5497Z" fill="white"/>
</mask>
<g mask="url(#mask23_138_3484)">
<path d="M29.9027 13.6658L29.8762 72.1257L28.2959 70.2507L29.9027 13.6658Z" fill="white"/>
</g>
</g>
</g>
<mask id="mask24_138_3484" style="mask-type:luminance" maskUnits="userSpaceOnUse" x="-55" y="-112" width="306" height="304">
<path d="M250.059 -111.899H-54.8906V191.899H250.059V-111.899Z" fill="black" fill-opacity="0.46"/>
</mask>
<g mask="url(#mask24_138_3484)">
<mask id="mask25_138_3484" style="mask-type:luminance" maskUnits="userSpaceOnUse" x="29" y="32" width="52" height="31">
<path d="M80.9812 32.9114H29.4785V62.616H80.9812V32.9114Z" fill="white"/>
</mask>
<g mask="url(#mask25_138_3484)">
<mask id="mask26_138_3484" style="mask-type:luminance" maskUnits="userSpaceOnUse" x="29" y="33" width="52" height="30">
<path d="M29.8857 33.1541H80.7901V62.4816H29.8857V33.1541Z" fill="white"/>
</mask>
<g mask="url(#mask26_138_3484)">
<path d="M80.7372 33.2068L79.7763 35.8386L29.9043 62.4156L29.9096 62.413L80.7372 33.2068Z" fill="white"/>
</g>
</g>
</g>
<mask id="mask27_138_3484" style="mask-type:luminance" maskUnits="userSpaceOnUse" x="-55" y="-112" width="306" height="304">
<path d="M250.059 -111.899H-54.8906V191.899H250.059V-111.899Z" fill="black" fill-opacity="0.23"/>
</mask>
<g mask="url(#mask27_138_3484)">
<mask id="mask28_138_3484" style="mask-type:luminance" maskUnits="userSpaceOnUse" x="33" y="22" width="29" height="25">
<path d="M61.3292 22.7849H33.5449V46.4136H61.3292V22.7849Z" fill="white"/>
</mask>
<g mask="url(#mask28_138_3484)">
<mask id="mask29_138_3484" style="mask-type:luminance" maskUnits="userSpaceOnUse" x="34" y="22" width="9" height="4">
<path d="M34.1143 22.9458H42.3548V25.4854H34.1143V22.9458Z" fill="white"/>
</mask>
<g mask="url(#mask29_138_3484)">
<path d="M37.8256 24.6072C39.3265 24.6072 40.7745 24.8314 42.1378 25.248L40.748 24.449L39.0697 23.4838C39.0671 23.4811 39.0671 23.4811 39.0671 23.4811C38.7839 23.3203 38.4953 23.2016 38.2041 23.1251C36.5523 22.69 34.829 23.5524 34.1514 25.0687C35.3267 24.7681 36.5576 24.6072 37.8256 24.6072Z" fill="white"/>
</g>
<mask id="mask30_138_3484" style="mask-type:luminance" maskUnits="userSpaceOnUse" x="47" y="28" width="15" height="18">
<path d="M47.7764 28.1858H61.1126V45.7385H47.7764V28.1858Z" fill="white"/>
</mask>
<g mask="url(#mask30_138_3484)">
<path d="M59.1693 35.0451L47.8555 28.5366C50.7488 31.2159 52.5568 35.0398 52.5568 39.2856C52.5568 41.5799 52.03 43.7502 51.0876 45.6832L52.443 44.9053L59.1693 41.0366C61.4856 39.7049 61.4856 36.3768 59.1693 35.0451Z" fill="white"/>
</g>
</g>
</g>
<mask id="mask31_138_3484" style="mask-type:luminance" maskUnits="userSpaceOnUse" x="-55" y="-112" width="306" height="304">
<path d="M250.059 -111.899H-54.8906V191.899H250.059V-111.899Z" fill="black" fill-opacity="0.23"/>
</mask>
<g mask="url(#mask31_138_3484)">
<mask id="mask32_138_3484" style="mask-type:luminance" maskUnits="userSpaceOnUse" x="33" y="43" width="11" height="11">
<path d="M43.7099 43.7131H33.5449V53.8397H43.7099V43.7131Z" fill="white"/>
</mask>
<g mask="url(#mask32_138_3484)">
<mask id="mask33_138_3484" style="mask-type:luminance" maskUnits="userSpaceOnUse" x="33" y="43" width="11" height="11">
<path d="M33.7881 43.8477H43.0319V53.1646H33.7881V43.8477Z" fill="white"/>
</mask>
<g mask="url(#mask33_138_3484)">
<path d="M33.8545 44.0033V49.6046C33.8545 49.7127 33.8598 49.8182 33.8704 49.921C34.0874 52.3946 36.8431 53.8767 39.0641 52.6003L42.9024 50.3904C38.9899 49.7707 35.681 47.3472 33.8545 44.0033Z" fill="white"/>
</g>
</g>
</g>
<mask id="mask34_138_3484" style="mask-type:luminance" maskUnits="userSpaceOnUse" x="-55" y="-112" width="306" height="304">
<path d="M250.059 -111.899H-54.8906V191.899H250.059V-111.899Z" fill="black" fill-opacity="0.23"/>
</mask>
<g mask="url(#mask34_138_3484)">
<mask id="mask35_138_3484" style="mask-type:luminance" maskUnits="userSpaceOnUse" x="11" y="31" width="20" height="42">
<path d="M30.1563 31.5613H11.1816V72.7427H30.1563V31.5613Z" fill="white"/>
</mask>
<g mask="url(#mask35_138_3484)">
<mask id="mask36_138_3484" style="mask-type:luminance" maskUnits="userSpaceOnUse" x="11" y="32" width="20" height="41">
<path d="M11.5068 32.02H30.0474V72.202H11.5068V32.02Z" fill="white"/>
</mask>
<g mask="url(#mask36_138_3484)">
<path d="M29.886 52.8692L29.8754 72.1255L28.295 70.2505L23.7976 64.9077L16.0732 55.741L14.4744 53.8423C11.1337 49.876 10.7366 44.2194 13.4923 39.8285L18.2889 32.1782C16.6556 37.3048 16.2982 43.5812 20.3589 49.5121C23.6996 54.3934 27.0218 54.5833 29.886 52.8692Z" fill="white"/>
</g>
</g>
</g>
<mask id="mask37_138_3484" style="mask-type:luminance" maskUnits="userSpaceOnUse" x="-55" y="-112" width="306" height="304">
<path d="M250.059 -111.899H-54.8906V191.899H250.059V-111.899Z" fill="black" fill-opacity="0.23"/>
</mask>
<g mask="url(#mask37_138_3484)">
<mask id="mask38_138_3484" style="mask-type:luminance" maskUnits="userSpaceOnUse" x="20" y="3" width="43" height="17">
<path d="M62.6843 3.88184H20.6689V19.4093H62.6843V3.88184Z" fill="white"/>
</mask>
<g mask="url(#mask38_138_3484)">
<mask id="mask39_138_3484" style="mask-type:luminance" maskUnits="userSpaceOnUse" x="21" y="4" width="42" height="15">
<path d="M21.3467 4.31433H62.0067V18.895H21.3467V4.31433Z" fill="white"/>
</mask>
<g mask="url(#mask39_138_3484)">
<path d="M38.2118 18.4204L21.4766 8.78692L23.896 8.3597L30.7918 7.14926L42.6219 5.0712L45.0731 4.63871C50.19 3.73945 55.3069 6.22626 57.745 10.7964L61.9963 18.7632C58.3564 14.789 53.0781 11.3423 45.8937 11.8803C39.9774 12.3207 38.1535 15.0949 38.2118 18.4204Z" fill="white"/>
</g>
</g>
</g>
<mask id="mask40_138_3484" style="mask-type:luminance" maskUnits="userSpaceOnUse" x="-55" y="-112" width="306" height="304">
<path d="M250.059 -111.899H-54.8906V191.899H250.059V-111.899Z" fill="black" fill-opacity="0.23"/>
</mask>
<g mask="url(#mask40_138_3484)">
<mask id="mask41_138_3484" style="mask-type:luminance" maskUnits="userSpaceOnUse" x="51" y="32" width="30" height="32">
<path d="M80.9814 32.9114H51.1641V63.9662H80.9814V32.9114Z" fill="white"/>
</mask>
<g mask="url(#mask41_138_3484)">
<mask id="mask42_138_3484" style="mask-type:luminance" maskUnits="userSpaceOnUse" x="51" y="33" width="30" height="31">
<path d="M51.6807 33.1541H80.7912V63.6156H51.6807V33.1541Z" fill="white"/>
</mask>
<g mask="url(#mask42_138_3484)">
<path d="M63.9947 42.827L80.7379 33.2068L79.8987 35.509L77.5031 42.0623L73.3947 53.3096L72.545 55.6382C70.7661 60.5037 66.0463 63.6736 60.8526 63.4942L51.8047 63.1778C57.0778 62.0254 62.7135 59.1957 65.8398 52.7268C68.4128 47.4025 66.9172 44.4436 63.9947 42.827Z" fill="white"/>
</g>
</g>
</g>
<mask id="mask43_138_3484" style="mask-type:luminance" maskUnits="userSpaceOnUse" x="-55" y="-112" width="306" height="304">
<path d="M250.059 -111.899H-54.8906V191.899H250.059V-111.899Z" fill="black" fill-opacity="0.32"/>
</mask>
<g mask="url(#mask43_138_3484)">
<mask id="mask44_138_3484" style="mask-type:luminance" maskUnits="userSpaceOnUse" x="35" y="40" width="25" height="14">
<path d="M59.9741 40.3376H35.5781V53.8398H59.9741V40.3376Z" fill="white"/>
</mask>
<g mask="url(#mask44_138_3484)">
<path d="M59.1698 41.0364L52.4435 44.905L46.551 48.2938L39.0649 52.6002C37.9531 53.241 36.7063 53.1883 35.7109 52.6635L59.1698 41.0364Z" fill="white"/>
</g>
</g>
<mask id="mask45_138_3484" style="mask-type:luminance" maskUnits="userSpaceOnUse" x="-55" y="-112" width="306" height="304">
<path d="M250.059 -111.899H-54.8906V191.899H250.059V-111.899Z" fill="black" fill-opacity="0.18"/>
</mask>
<g mask="url(#mask45_138_3484)">
<mask id="mask46_138_3484" style="mask-type:luminance" maskUnits="userSpaceOnUse" x="35" y="24" width="20" height="23">
<path d="M54.5528 24.8101H35.5781V46.4134H54.5528V24.8101Z" fill="white"/>
</mask>
<g mask="url(#mask46_138_3484)">
<mask id="mask47_138_3484" style="mask-type:luminance" maskUnits="userSpaceOnUse" x="35" y="25" width="20" height="22">
<path d="M35.5781 25.0527H54.1187V46.1155H35.5781V25.0527Z" fill="white"/>
</mask>
<g mask="url(#mask47_138_3484)">
<path d="M52.8008 37.4763L52.0067 37.9325L48.0731 40.1925L43.9329 42.5765L38.6704 45.6013C38.0192 45.9757 37.3019 46.0127 36.6745 45.8017C36.153 45.4088 35.7824 44.8075 35.7189 44.0876C35.7136 44.0164 35.7109 43.9425 35.7109 43.866V27.6134C35.7109 25.9678 37.2807 24.8655 38.7657 25.2558C38.8531 25.2795 38.9404 25.3086 39.0252 25.3428L39.8537 25.8175L52.8008 33.2648C54.4262 34.201 54.4262 36.5401 52.8008 37.4763Z" fill="white"/>
</g>
</g>
</g>
<mask id="mask48_138_3484" style="mask-type:luminance" maskUnits="userSpaceOnUse" x="-55" y="-112" width="306" height="304">
<path d="M250.059 -111.899H-54.8906V191.899H250.059V-111.899Z" fill="black" fill-opacity="0.32"/>
</mask>
<g mask="url(#mask48_138_3484)">
<mask id="mask49_138_3484" style="mask-type:luminance" maskUnits="userSpaceOnUse" x="35" y="24" width="20" height="22">
<path d="M54.5528 24.135H35.5781V45.7384H54.5528V24.135Z" fill="white"/>
</mask>
<g mask="url(#mask49_138_3484)">
<mask id="mask50_138_3484" style="mask-type:luminance" maskUnits="userSpaceOnUse" x="35" y="24" width="20" height="22">
<path d="M35.5781 24.4041H54.1187V45.4695H35.5781V24.4041Z" fill="white"/>
</mask>
<g mask="url(#mask50_138_3484)">
<path d="M52.8008 36.8143L48.0731 39.5332L43.9329 41.9171L38.6704 44.9419C38.0192 45.3164 37.3019 45.3533 36.6745 45.1424C36.153 44.7521 35.7824 44.1508 35.7189 43.4309C35.7136 43.357 35.7109 43.2832 35.7109 43.2067V26.9514C35.7109 25.3085 37.2807 24.2035 38.7657 24.5965C38.8531 24.6202 38.9404 24.6466 39.0252 24.6809L39.8537 25.1582L52.8008 32.6054C54.4262 33.5416 54.4262 35.8808 52.8008 36.8143Z" fill="white"/>
</g>
</g>
</g>
<mask id="mask51_138_3484" style="mask-type:luminance" maskUnits="userSpaceOnUse" x="-55" y="-112" width="306" height="304">
<path d="M250.059 -111.899H-54.8906V191.899H250.059V-111.899Z" fill="black" fill-opacity="0.32"/>
</mask>
<g mask="url(#mask51_138_3484)">
<mask id="mask52_138_3484" style="mask-type:luminance" maskUnits="userSpaceOnUse" x="18" y="6" width="55" height="54">
<path d="M72.1714 6.58228H18.6357V59.9156H72.1714V6.58228Z" fill="white"/>
</mask>
<g mask="url(#mask52_138_3484)">
<mask id="mask53_138_3484" style="mask-type:luminance" maskUnits="userSpaceOnUse" x="18" y="34" width="3" height="3">
<path d="M18.6621 34.2616H20.6686V36.2869H18.6621V34.2616Z" fill="white"/>
</mask>
<g mask="url(#mask53_138_3484)">
<path d="M20.3461 35.2242C20.3461 35.3692 20.2932 35.4905 20.1926 35.5934C20.0893 35.6962 19.9676 35.7463 19.822 35.7463C19.6764 35.7463 19.5546 35.6962 19.4514 35.5934C19.3508 35.4905 19.2979 35.3692 19.2979 35.2242C19.2979 35.0818 19.3508 34.9578 19.4514 34.855C19.5546 34.7548 19.6764 34.702 19.822 34.702C19.9676 34.702 20.0893 34.7548 20.1926 34.855C20.2932 34.9578 20.3461 35.0818 20.3461 35.2242Z" fill="white"/>
</g>
<path d="M25.8704 43.9794C25.8704 44.1324 25.8412 44.28 25.783 44.4224C25.7221 44.5648 25.6401 44.6888 25.5289 44.7969C25.4204 44.9077 25.2959 44.9894 25.153 45.0474C25.01 45.1081 24.8618 45.1371 24.7083 45.1371C24.5547 45.1371 24.4065 45.1081 24.2636 45.0474C24.1233 44.9894 23.9962 44.9077 23.8877 44.7969C23.7791 44.6888 23.6944 44.5648 23.6362 44.4224C23.5779 44.28 23.5488 44.1324 23.5488 43.9794C23.5488 43.8265 23.5779 43.6788 23.6362 43.5364C23.6944 43.3966 23.7791 43.27 23.8877 43.1619C23.9962 43.0538 24.1233 42.9694 24.2636 42.9114C24.4065 42.8533 24.5547 42.8243 24.7083 42.8243C24.8618 42.8243 25.01 42.8533 25.153 42.9114C25.2959 42.9694 25.4204 43.0538 25.5289 43.1619C25.6401 43.27 25.7221 43.3966 25.783 43.5364C25.8412 43.6788 25.8704 43.8265 25.8704 43.9794Z" fill="white"/>
<mask id="mask54_138_3484" style="mask-type:luminance" maskUnits="userSpaceOnUse" x="18" y="53" width="4" height="5">
<path d="M18.6621 53.8396H21.3463V57.2151H18.6621V53.8396Z" fill="white"/>
</mask>
<g mask="url(#mask54_138_3484)">
<path d="M21.3383 55.625C21.3383 55.7938 21.3065 55.9546 21.2403 56.1102C21.1768 56.2658 21.0841 56.4029 20.965 56.5216C20.8459 56.6429 20.7082 56.7326 20.5521 56.7985C20.3959 56.8618 20.2318 56.8934 20.0623 56.8934C19.8929 56.8934 19.7314 56.8618 19.5753 56.7985C19.4191 56.7326 19.2814 56.6429 19.1623 56.5216C19.0405 56.4029 18.9505 56.2658 18.8844 56.1102C18.8208 55.9546 18.7891 55.7938 18.7891 55.625C18.7891 55.4562 18.8208 55.2927 18.8844 55.1371C18.9505 54.9815 19.0405 54.8444 19.1623 54.7257C19.2814 54.607 19.4191 54.5147 19.5753 54.4515C19.7314 54.3855 19.8929 54.3539 20.0623 54.3539C20.2318 54.3539 20.3959 54.3855 20.5521 54.4515C20.7082 54.5147 20.8459 54.607 20.965 54.7257C21.0841 54.8444 21.1768 54.9815 21.2403 55.1371C21.3065 55.2927 21.3383 55.4562 21.3383 55.625Z" fill="white"/>
</g>
<path d="M61.2813 57.4867C61.2813 57.6502 61.2231 57.7899 61.1066 57.906C60.9902 58.022 60.8499 58.08 60.6857 58.08C60.5216 58.08 60.3813 58.022 60.2648 57.906C60.151 57.7899 60.0928 57.6502 60.0928 57.4867C60.0928 57.3232 60.151 57.1834 60.2648 57.0674C60.3813 56.9513 60.5216 56.8933 60.6857 56.8933C60.8499 56.8933 60.9902 56.9513 61.1066 57.0674C61.2231 57.1834 61.2813 57.3232 61.2813 57.4867Z" fill="white"/>
<path d="M69.6835 45.2187C69.6835 45.3479 69.6385 45.4561 69.5485 45.5484C69.4558 45.638 69.3446 45.6829 69.2176 45.6829C69.0879 45.6829 68.9767 45.638 68.8867 45.5484C68.794 45.4561 68.749 45.3479 68.749 45.2187C68.749 45.0895 68.794 44.9787 68.8867 44.8891C68.9767 44.7994 69.0879 44.752 69.2176 44.752C69.3446 44.752 69.4558 44.7994 69.5485 44.8891C69.6385 44.9787 69.6835 45.0895 69.6835 45.2187Z" fill="white"/>
<mask id="mask55_138_3484" style="mask-type:luminance" maskUnits="userSpaceOnUse" x="68" y="54" width="4" height="4">
<path d="M68.1055 54.5148H71.6844V57.8903H68.1055V54.5148Z" fill="white"/>
</mask>
<g mask="url(#mask55_138_3484)">
<path d="M71.5523 56.1075C71.5523 56.2921 71.5179 56.4714 71.4465 56.6429C71.375 56.8143 71.2744 56.9646 71.142 57.0964C71.0097 57.2257 70.8588 57.3285 70.6867 57.3971C70.5147 57.4683 70.3373 57.5052 70.152 57.5052C69.9641 57.5052 69.7867 57.4683 69.6146 57.3971C69.4426 57.3285 69.2917 57.2257 69.1593 57.0964C69.027 56.9646 68.9264 56.8143 68.8549 56.6429C68.7834 56.4714 68.749 56.2921 68.749 56.1075C68.749 55.9229 68.7834 55.7436 68.8549 55.5722C68.9264 55.4008 69.027 55.2505 69.1593 55.1186C69.2917 54.9894 69.4426 54.8865 69.6146 54.8153C69.7867 54.7468 69.9641 54.7098 70.152 54.7098C70.3373 54.7098 70.5147 54.7468 70.6867 54.8153C70.8588 54.8865 71.0097 54.9894 71.142 55.1186C71.2744 55.2505 71.375 55.4008 71.4465 55.5722C71.5179 55.7436 71.5523 55.9229 71.5523 56.1075Z" fill="white"/>
</g>
<mask id="mask56_138_3484" style="mask-type:luminance" maskUnits="userSpaceOnUse" x="47" y="57" width="3" height="3">
<path d="M47.7754 57.8903H49.1307V59.7257H47.7754V57.8903Z" fill="white"/>
</mask>
<g mask="url(#mask56_138_3484)">
<path d="M49.1284 59.0268C49.1284 59.2008 49.0675 59.3459 48.9457 59.4672C48.8239 59.5885 48.6757 59.6491 48.5036 59.6491C48.3316 59.6491 48.1833 59.5885 48.0616 59.4672C47.9398 59.3459 47.8789 59.2008 47.8789 59.0268C47.8789 58.8554 47.9398 58.7103 48.0616 58.5864C48.1833 58.4651 48.3316 58.4044 48.5036 58.4044C48.6757 58.4044 48.8239 58.4651 48.9457 58.5864C49.0675 58.7103 49.1284 58.8554 49.1284 59.0268Z" fill="white"/>
</g>
<path d="M40.2312 7.34701C40.2312 7.49733 40.1783 7.62654 40.0698 7.73203C39.9639 7.83751 39.8368 7.89026 39.6859 7.89026C39.535 7.89026 39.408 7.83751 39.2995 7.73203C39.1936 7.62654 39.1406 7.49733 39.1406 7.34701C39.1406 7.19669 39.1936 7.07011 39.2995 6.96462C39.408 6.85914 39.535 6.8064 39.6859 6.8064C39.8368 6.8064 39.9639 6.85914 40.0698 6.96462C40.1783 7.07011 40.2312 7.19669 40.2312 7.34701Z" fill="white"/>
<path d="M52.3527 17.339C52.3527 17.5157 52.2891 17.6634 52.1647 17.7873C52.0429 17.9113 51.8921 17.9719 51.7173 17.9719C51.5426 17.9719 51.3917 17.9113 51.2673 17.7873C51.1456 17.6634 51.082 17.5157 51.082 17.339C51.082 17.165 51.1456 17.0173 51.2673 16.8933C51.3917 16.7694 51.5426 16.7087 51.7173 16.7087C51.8921 16.7087 52.0429 16.7694 52.1647 16.8933C52.2891 17.0173 52.3527 17.165 52.3527 17.339Z" fill="white"/>
<path d="M62.8536 26.664C62.8536 26.7299 62.8324 26.7853 62.7848 26.8301C62.7398 26.8749 62.6842 26.8987 62.6206 26.8987C62.5545 26.8987 62.5015 26.8749 62.4539 26.8301C62.4089 26.7853 62.3877 26.7299 62.3877 26.664C62.3877 26.6007 62.4089 26.5453 62.4539 26.5005C62.5015 26.4556 62.5545 26.4319 62.6206 26.4319C62.6842 26.4319 62.7398 26.4556 62.7848 26.5005C62.8324 26.5453 62.8536 26.6007 62.8536 26.664Z" fill="white"/>
<path d="M40.3211 13.6709C40.3211 13.8238 40.292 13.9715 40.2337 14.1139C40.1729 14.2563 40.0908 14.3829 39.9796 14.4936C39.8711 14.6018 39.744 14.6862 39.6011 14.7442C39.4581 14.8048 39.3099 14.8338 39.1537 14.8338C39.0002 14.8338 38.8493 14.8048 38.7063 14.7442C38.5634 14.6862 38.439 14.6018 38.3278 14.4936C38.2193 14.3829 38.1346 14.2563 38.0763 14.1139C38.0154 13.9715 37.9863 13.8238 37.9863 13.6709C37.9863 13.5153 38.0154 13.3676 38.0763 13.2252C38.1346 13.0828 38.2193 12.9562 38.3278 12.8481C38.439 12.7373 38.5634 12.6529 38.7063 12.5949C38.8493 12.5369 39.0002 12.5052 39.1537 12.5052C39.3099 12.5052 39.4581 12.5369 39.6011 12.5949C39.744 12.6529 39.8711 12.7373 39.9796 12.8481C40.0908 12.9562 40.1729 13.0828 40.2337 13.2252C40.292 13.3676 40.3211 13.5153 40.3211 13.6709Z" fill="white"/>
<path d="M49.1648 21.0495C49.1648 21.2288 49.1013 21.3818 48.9716 21.511C48.8445 21.6376 48.691 21.7009 48.511 21.7009C48.3283 21.7009 48.1748 21.6376 48.0477 21.511C47.918 21.3818 47.8545 21.2288 47.8545 21.0495C47.8545 20.8676 47.918 20.7146 48.0477 20.588C48.1748 20.4588 48.3283 20.3955 48.511 20.3955C48.691 20.3955 48.8445 20.4588 48.9716 20.588C49.1013 20.7146 49.1648 20.8676 49.1648 21.0495Z" fill="white"/>
</g>
</g>
<mask id="mask57_138_3484" style="mask-type:luminance" maskUnits="userSpaceOnUse" x="-55" y="-112" width="306" height="304">
<path d="M250.059 -111.899H-54.8906V191.899H250.059V-111.899Z" fill="black" fill-opacity="0.77"/>
</mask>
<g mask="url(#mask57_138_3484)">
<mask id="mask58_138_3484" style="mask-type:luminance" maskUnits="userSpaceOnUse" x="35" y="32" width="13" height="15">
<path d="M47.0985 32.9114H35.5781V46.4135H47.0985V32.9114Z" fill="white"/>
</mask>
<g mask="url(#mask58_138_3484)">
<mask id="mask59_138_3484" style="mask-type:luminance" maskUnits="userSpaceOnUse" x="35" y="33" width="12" height="14">
<path d="M35.5781 33.1541H46.6379V46.1156H35.5781V33.1541Z" fill="white"/>
</mask>
<g mask="url(#mask59_138_3484)">
<mask id="mask60_138_3484" style="mask-type:luminance" maskUnits="userSpaceOnUse" x="-86" y="-143" width="367" height="366">
<path d="M280.554 -142.278H-85.3857V222.279H280.554V-142.278Z" fill="black" fill-opacity="0.32"/>
</mask>
<g mask="url(#mask60_138_3484)">
<mask id="mask61_138_3484" style="mask-type:luminance" maskUnits="userSpaceOnUse" x="35" y="32" width="13" height="15">
<path d="M47.0985 32.9116H35.5781V46.4137H47.0985V32.9116Z" fill="white"/>
</mask>
<g mask="url(#mask61_138_3484)">
<mask id="mask62_138_3484" style="mask-type:luminance" maskUnits="userSpaceOnUse" x="35" y="33" width="12" height="14">
<path d="M35.5781 33.1543H46.6379V46.1158H35.5781V33.1543Z" fill="white"/>
</mask>
<g mask="url(#mask62_138_3484)">
<path d="M35.7109 33.2256V43.8664C35.7109 43.9429 35.7136 44.0167 35.7189 44.0879C35.7824 44.8079 36.153 45.4091 36.6745 45.8021C37.3019 46.013 38.0192 45.9761 38.6704 45.6016L43.9329 42.5769L46.4371 41.137C39.2052 44.2778 36.3277 38.2282 35.7109 33.2256Z" fill="white"/>
</g>
</g>
</g>
</g>
</g>
</g>
<mask id="mask63_138_3484" style="mask-type:luminance" maskUnits="userSpaceOnUse" x="-55" y="-112" width="306" height="304">
<path d="M250.059 -111.899H-54.8906V191.899H250.059V-111.899Z" fill="black" fill-opacity="0.32"/>
</mask>
<g mask="url(#mask63_138_3484)">
<mask id="mask64_138_3484" style="mask-type:luminance" maskUnits="userSpaceOnUse" x="34" y="40" width="26" height="14">
<path d="M59.974 40.3376H34.2227V53.8398H59.974V40.3376Z" fill="white"/>
</mask>
<g mask="url(#mask64_138_3484)">
<mask id="mask65_138_3484" style="mask-type:luminance" maskUnits="userSpaceOnUse" x="34" y="41" width="26" height="13">
<path d="M34.7656 41.0127H59.2966V53.1646H34.7656V41.0127Z" fill="white"/>
</mask>
<g mask="url(#mask65_138_3484)">
<path d="M59.1665 41.0364L52.4428 44.905L46.5502 48.2938L39.0641 52.6002C38.1376 53.1329 37.1158 53.1856 36.2238 52.885C35.4826 52.3259 34.9558 51.4715 34.8658 50.4457C34.8552 50.3428 34.8525 50.2373 34.8525 50.1292V48.4467C36.102 49.3513 37.8306 50.0844 39.8053 49.4778C43.7946 48.2516 58.9309 41.1471 59.1665 41.0364Z" fill="white"/>
</g>
</g>
</g>
<path d="M123.155 43.3499L126.851 24.1621H134.358L128.407 55.1748H122.975L110.259 35.9448L106.521 55.1748H99.0029L104.964 24.1621H110.396L123.155 43.3499Z" fill="#D22522"/>
<path d="M142.264 55.1748H134.481L140.443 24.1621H148.225L142.264 55.1748Z" fill="#D22522"/>
<path d="M164.682 55.755C161.892 55.755 159.335 55.1432 157.005 53.9196C154.676 52.6907 152.828 50.966 151.467 48.7508C150.104 46.5356 149.424 44.0409 149.424 41.2614C149.424 38.1601 150.207 35.254 151.774 32.5377C153.347 29.8162 155.523 27.6432 158.297 26.0187C161.071 24.3943 164.205 23.582 167.7 23.582C170.368 23.582 172.761 24.0936 174.879 25.1116C177.002 26.1321 178.733 27.5588 180.067 29.3943C181.401 31.2244 182.259 33.3473 182.64 35.7656H174.635C174.106 34.1147 173.195 32.8515 171.903 31.9787C170.611 31.1084 169.06 30.6706 167.255 30.6706C165.391 30.6706 163.7 31.1453 162.183 32.0947C160.672 33.0388 159.494 34.2861 158.646 35.8394C157.805 37.3874 157.386 39.033 157.386 40.7761C157.386 42.2529 157.696 43.5899 158.318 44.7846C158.938 45.9818 159.856 46.9259 161.071 47.6221C162.292 48.3183 163.732 48.6664 165.391 48.6664C167.345 48.6664 169.026 48.2023 170.431 47.274C171.842 46.3405 172.978 45.0878 173.841 43.5187H181.931C180.567 47.274 178.357 50.254 175.302 52.4533C172.253 54.6553 168.711 55.755 164.682 55.755Z" fill="#D22522"/>
<path d="M212.078 55.1748H204.38L203.449 49.1094H191.791L188.508 55.1748H180.186L198.017 24.1621H206.159L212.078 55.1748ZM202.686 42.6326L200.907 31.8731L194.999 42.6326H202.686Z" fill="#D22522"/>
</g>
<defs>
<clipPath id="clip0_138_3484">
<rect width="224" height="80" fill="white"/>
</clipPath>
</defs>
</svg>
