<svg width="26" height="26" viewBox="0 0 26 26" fill="none" xmlns="http://www.w3.org/2000/svg">
<path fill-rule="evenodd" clip-rule="evenodd" d="M14.7732 6.46746C15.4003 6.46741 16.0212 6.59089 16.6006 6.83084C17.1799 7.07079 17.7063 7.42252 18.1497 7.86593C18.5931 8.30934 18.9448 8.83576 19.1847 9.41511C19.4246 9.99446 19.548 10.6154 19.5479 11.2425C19.5498 11.4031 19.6149 11.5566 19.7291 11.6696C19.8434 11.7826 19.9976 11.8459 20.1583 11.8459C20.319 11.8459 20.4732 11.7826 20.5874 11.6696C20.7017 11.5566 20.7668 11.4031 20.7686 11.2425C20.7679 9.65266 20.136 8.12818 19.0118 7.00408C17.8876 5.87998 16.3631 5.24823 14.7732 5.24769C14.6926 5.24678 14.6125 5.26188 14.5378 5.29212C14.463 5.32235 14.3949 5.36713 14.3376 5.42384C14.2802 5.48056 14.2347 5.54809 14.2036 5.62253C14.1725 5.69697 14.1565 5.77683 14.1565 5.8575C14.1565 5.93817 14.1725 6.01803 14.2036 6.09247C14.2347 6.16691 14.2802 6.23444 14.3376 6.29116C14.3949 6.34787 14.463 6.39265 14.5378 6.42288C14.6125 6.45312 14.6926 6.46822 14.7732 6.46731V6.46746ZM13.8519 10.372C13.7713 10.3729 13.6912 10.3578 13.6164 10.3276C13.5416 10.2973 13.4736 10.2526 13.4162 10.1958C13.3589 10.1391 13.3133 10.0716 13.2823 9.99716C13.2512 9.92272 13.2352 9.84285 13.2352 9.76219C13.2352 9.68152 13.2512 9.60166 13.2823 9.52722C13.3133 9.45278 13.3589 9.38525 13.4162 9.32853C13.4736 9.27181 13.5416 9.22704 13.6164 9.1968C13.6912 9.16657 13.7713 9.15147 13.8519 9.15238C14.2633 9.15216 14.6707 9.23301 15.0509 9.39032C15.431 9.54763 15.7764 9.77831 16.0674 10.0692C16.3583 10.3601 16.5891 10.7054 16.7465 11.0855C16.9039 11.4656 16.9849 11.873 16.9847 12.2844C16.9829 12.4451 16.9178 12.5986 16.8035 12.7116C16.6893 12.8245 16.5351 12.8879 16.3744 12.8879C16.2137 12.8879 16.0595 12.8245 15.9452 12.7116C15.831 12.5986 15.7658 12.4451 15.764 12.2844C15.7641 12.0333 15.7147 11.7846 15.6187 11.5526C15.5227 11.3206 15.3819 11.1098 15.2043 10.9322C15.0268 10.7546 14.816 10.6137 14.5841 10.5176C14.3521 10.4215 14.1034 10.372 13.8523 10.372H13.8519ZM17.8225 25.4612C15.8947 25.1207 13.9922 24.2363 12.3315 23.222C10.4106 22.0473 8.61629 20.5831 7.02473 18.9911C5.43317 17.399 3.96833 15.6059 2.79364 13.6832C1.7802 12.0228 0.893403 10.1197 0.55481 8.19285C0.47346 7.76179 0.497991 7.31742 0.626294 6.89793C0.762634 6.4827 0.996387 6.10614 1.30801 5.79973L3.85083 3.25762C3.96992 3.13932 4.13097 3.07292 4.29883 3.07292C4.4667 3.07292 4.62775 3.13932 4.74684 3.25762L9.31473 7.82457C9.43281 7.94391 9.49904 8.10501 9.49904 8.27289C9.49904 8.44077 9.43281 8.60187 9.31473 8.72121L6.88708 11.1496C6.71415 11.3213 6.60804 11.549 6.58778 11.7919C6.56753 12.0347 6.63444 12.2769 6.77653 12.4749C7.71567 13.7726 8.76031 14.9907 9.89981 16.1166C11.025 17.2566 12.2431 18.3011 13.5413 19.2394C13.739 19.3819 13.981 19.449 14.2238 19.4289C14.4666 19.4087 14.6942 19.3026 14.8657 19.1295L17.2954 16.7014C17.3539 16.6425 17.4235 16.5959 17.5003 16.5642C17.577 16.5325 17.6592 16.5163 17.7422 16.5167C17.9105 16.5164 18.072 16.5828 18.1914 16.7014L22.7587 21.2686C22.8768 21.3879 22.943 21.5489 22.943 21.7168C22.943 21.8846 22.8768 22.0457 22.7587 22.165L20.2158 24.7073C19.9115 25.0227 19.5331 25.2569 19.1151 25.3886C18.697 25.5203 18.2527 25.5453 17.8225 25.4612ZM14.7732 1.72613C14.6116 1.72613 14.4565 1.6619 14.3422 1.54757C14.2278 1.43324 14.1636 1.27817 14.1636 1.11648C14.1636 0.954795 14.2278 0.799729 14.3422 0.685398C14.4565 0.571066 14.6116 0.506836 14.7732 0.506836C16.1831 0.506764 17.5791 0.784401 18.8817 1.32389C20.1842 1.86338 21.3677 2.65416 22.3646 3.65107C23.3615 4.64798 24.1523 5.8315 24.6918 7.13404C25.2312 8.43657 25.5089 9.83262 25.5088 11.2425C25.5088 11.4043 25.4445 11.5596 25.33 11.6741C25.2155 11.7885 25.0603 11.8529 24.8984 11.8529C24.7365 11.8529 24.5813 11.7885 24.4668 11.6741C24.3523 11.5596 24.288 11.4043 24.288 11.2425C24.2882 8.71879 23.2859 6.2984 21.5015 4.51375C19.7171 2.72909 17.2969 1.72636 14.7732 1.72613Z" fill="white"/>
</svg>
