<svg width="32" height="33" viewBox="0 0 32 33" fill="none" xmlns="http://www.w3.org/2000/svg">
<rect y="0.437012" width="32" height="32" rx="16" fill="#BB2525"/>
<path d="M18.6907 9.94917V9.94629H19.4409L19.7151 10.001C19.8978 10.0366 20.0637 10.0832 20.2128 10.1408C20.3619 10.1984 20.5062 10.2657 20.6456 10.3425C20.7851 10.4193 20.9116 10.4976 21.0251 10.5773C21.1376 10.6561 21.2386 10.7397 21.3281 10.828C21.4165 10.9174 21.5546 10.9404 21.7421 10.8972C21.9297 10.854 22.1316 10.7939 22.3481 10.7171C22.5645 10.6403 22.7785 10.5538 22.9901 10.4578C23.2017 10.3617 23.3306 10.3007 23.3768 10.2748C23.422 10.2479 23.446 10.2335 23.4489 10.2316L23.4518 10.2272L23.4662 10.22L23.4806 10.2128L23.495 10.2056L23.5095 10.1984L23.5124 10.1941L23.5167 10.1912L23.521 10.1883L23.5239 10.184L23.5383 10.1797L23.5528 10.1768L23.5499 10.1984L23.5455 10.22L23.5383 10.2416L23.5311 10.2633L23.5239 10.2777L23.5167 10.2921L23.5095 10.3137C23.5047 10.3281 23.4999 10.3473 23.495 10.3713C23.4902 10.3953 23.4445 10.4914 23.358 10.6595C23.2714 10.8276 23.1632 10.998 23.0334 11.1709C22.9035 11.3438 22.7871 11.4744 22.6842 11.5628C22.5804 11.6521 22.5116 11.7146 22.4779 11.7501C22.4442 11.7866 22.4034 11.8202 22.3553 11.851L22.2831 11.8985L22.2687 11.9057L22.2543 11.9129L22.2514 11.9172L22.2471 11.9201L22.2427 11.923L22.2399 11.9273L22.2254 11.9345L22.211 11.9417L22.2081 11.946L22.2038 11.9489L22.1995 11.9518L22.1966 11.9561L22.1937 11.9605L22.1894 11.9633L22.185 11.9662L22.1821 11.9705H22.2543L22.6583 11.8841C22.9276 11.8265 23.1849 11.7568 23.4301 11.6752L23.8197 11.5455L23.8629 11.5311L23.8846 11.5239L23.899 11.5167L23.9134 11.5095L23.9279 11.5023L23.9423 11.4951L23.9711 11.4908L24 11.4879V11.5167L23.9928 11.5196L23.9856 11.5239L23.9827 11.5282L23.9784 11.5311L23.974 11.534L23.9711 11.5383L23.9683 11.5426L23.9639 11.5455L23.9596 11.5484L23.9567 11.5527L23.9538 11.557L23.9495 11.5599L23.9423 11.5743L23.9351 11.5887L23.9307 11.5916C23.9288 11.5945 23.8678 11.6761 23.7475 11.8365C23.6273 11.9979 23.5624 12.0795 23.5528 12.0815C23.5431 12.0844 23.5297 12.0988 23.5124 12.1247C23.496 12.1516 23.394 12.2587 23.2065 12.446C23.0189 12.6333 22.8352 12.7999 22.6554 12.9459C22.4746 13.0929 22.3832 13.2735 22.3813 13.4876C22.3784 13.7009 22.3673 13.942 22.3481 14.2109C22.3288 14.4798 22.2928 14.7704 22.2399 15.0826C22.187 15.3947 22.1052 15.7477 21.9946 16.1415C21.884 16.5353 21.7493 16.9195 21.5906 17.2941C21.4319 17.6687 21.266 18.0049 21.0929 18.3026C20.9197 18.6004 20.761 18.8525 20.6168 19.059C20.4725 19.2655 20.3258 19.46 20.1767 19.6425C20.0277 19.825 19.8391 20.0306 19.6112 20.2592C19.3823 20.4868 19.2572 20.6117 19.2361 20.6338C19.214 20.6549 19.1197 20.7337 18.9533 20.87C18.7879 21.0074 18.6099 21.1447 18.4195 21.2821C18.23 21.4185 18.0559 21.5323 17.8972 21.6235C17.7385 21.7148 17.5471 21.819 17.323 21.9362C17.0999 22.0543 16.8584 22.1638 16.5987 22.2647C16.339 22.3655 16.0649 22.4592 15.7764 22.5456C15.4878 22.6321 15.2089 22.6993 14.9396 22.7473C14.6703 22.7954 14.3649 22.8362 14.0234 22.8698L13.5113 22.9202V22.9274H12.5735V22.9202L12.4509 22.913C12.3691 22.9082 12.3018 22.9034 12.2489 22.8986C12.196 22.8938 11.9964 22.8674 11.6501 22.8194C11.3039 22.7713 11.0322 22.7233 10.835 22.6753C10.6378 22.6273 10.3445 22.536 9.95491 22.4016C9.56537 22.2671 9.2321 22.1312 8.95509 21.9938C8.67905 21.8574 8.50593 21.771 8.43571 21.7345C8.36646 21.6989 8.28855 21.6548 8.20198 21.6019L8.07214 21.5227L8.06927 21.5184L8.06492 21.5155L8.0606 21.5126L8.05771 21.5083L8.04328 21.5011L8.02885 21.4939L8.02598 21.4896L8.02164 21.4867L8.01731 21.4838L8.01443 21.4795L8.01156 21.4752L8.00721 21.4723H8V21.4435L8.01443 21.4463L8.02885 21.4507L8.09378 21.4579C8.13706 21.4627 8.25489 21.4699 8.44725 21.4795C8.63962 21.4891 8.844 21.4891 9.06041 21.4795C9.27683 21.4699 9.49806 21.4483 9.72408 21.4146C9.95011 21.381 10.217 21.3234 10.5248 21.2417C10.8326 21.1601 11.1154 21.0631 11.3731 20.9507C11.63 20.8374 11.8127 20.7529 11.9214 20.6971C12.0291 20.6424 12.1936 20.5406 12.4148 20.3917L12.7466 20.1684L12.7495 20.1641L12.7538 20.1612L12.7582 20.1583L12.761 20.154L12.7639 20.1497L12.7683 20.1468L12.7726 20.1439L12.7755 20.1396L12.7899 20.1353L12.8043 20.1324L12.8072 20.118L12.8115 20.1036L12.8159 20.1007L12.8188 20.0964L12.7033 20.0892C12.6264 20.0844 12.5518 20.0795 12.4797 20.0747C12.4076 20.0699 12.2946 20.0483 12.1407 20.0099C11.9868 19.9715 11.8209 19.9139 11.6429 19.837C11.465 19.7602 11.2919 19.6689 11.1235 19.5633C10.9552 19.4576 10.8335 19.3697 10.7585 19.2996C10.6845 19.2305 10.5883 19.1325 10.47 19.0057C10.3526 18.878 10.2507 18.7469 10.1641 18.6124C10.0775 18.4779 9.99483 18.3228 9.91597 18.147L9.79621 17.8848L9.789 17.8632L9.78179 17.8416L9.77746 17.8272L9.77457 17.8128L9.79621 17.8157L9.81785 17.82L9.97656 17.8416C10.0824 17.856 10.2483 17.8608 10.4743 17.856C10.7003 17.8512 10.8566 17.8416 10.9432 17.8272C11.0298 17.8128 11.0827 17.8032 11.1019 17.7984L11.1307 17.7912L11.1668 17.784L11.2029 17.7768L11.2058 17.7724L11.2101 17.7695L11.2144 17.7667L11.2173 17.7623L11.1885 17.7551L11.1596 17.7479L11.1307 17.7407L11.1019 17.7335L11.073 17.7263C11.0538 17.7215 11.0201 17.7119 10.972 17.6975C10.924 17.6831 10.7941 17.6303 10.5825 17.539C10.3709 17.4478 10.2026 17.3589 10.0775 17.2725C9.9522 17.1858 9.83267 17.091 9.71975 16.9887C9.60721 16.8849 9.48363 16.7514 9.34896 16.5881C9.21431 16.4249 9.09409 16.2352 8.98828 16.019C8.88248 15.8029 8.80313 15.5964 8.75023 15.3995C8.69753 15.2038 8.66277 15.0036 8.64636 14.8016L8.62038 14.4991L8.63481 14.5019L8.64923 14.5063L8.66366 14.5135L8.67809 14.5207L8.69252 14.5279L8.70694 14.5351L8.93057 14.6359C9.07966 14.7032 9.26481 14.7608 9.48602 14.8088C9.70725 14.8568 9.8395 14.8833 9.88278 14.8881L9.9477 14.8953H10.0775L10.0747 14.8909L10.0703 14.8881L10.066 14.8852L10.0631 14.8808L10.0602 14.8765L10.0559 14.8736L10.0516 14.8708L10.0487 14.8664L10.0343 14.8592L10.0198 14.852L10.017 14.8477L10.0126 14.8448L10.0083 14.8419L10.0054 14.8376L9.99098 14.8304L9.97656 14.8232L9.97368 14.8189C9.9708 14.817 9.92944 14.7862 9.84959 14.7267C9.77072 14.6662 9.68801 14.5879 9.60144 14.4918C9.51488 14.3958 9.42831 14.2949 9.34175 14.1893C9.25503 14.0834 9.17778 13.9701 9.11091 13.8507C9.04359 13.7307 8.97241 13.5779 8.89739 13.3926C8.82333 13.2081 8.76706 13.0223 8.72858 12.835C8.69012 12.6477 8.66848 12.4628 8.66366 12.2803C8.65886 12.0978 8.66366 11.9417 8.67809 11.8121C8.69252 11.6824 8.72137 11.5359 8.76465 11.3726C8.80794 11.2093 8.87046 11.0365 8.95221 10.854L9.07484 10.5802L9.08206 10.5586L9.08927 10.537L9.09361 10.5341L9.09648 10.5298L9.09937 10.5255L9.1037 10.5226L9.10804 10.5255L9.11091 10.5298L9.1138 10.5341L9.11812 10.537L9.12247 10.5399L9.12534 10.5442L9.12822 10.5485L9.13255 10.5514L9.13977 10.5658L9.14698 10.5802L9.15132 10.5831L9.15419 10.5874L9.34896 10.8035C9.47881 10.9476 9.63271 11.1085 9.81064 11.2862C9.98859 11.4639 10.0872 11.5561 10.1064 11.5628C10.1256 11.5705 10.1497 11.5926 10.1785 11.6291C10.2074 11.6646 10.3036 11.7496 10.4671 11.8841C10.6306 12.0186 10.8446 12.1746 11.1091 12.3523C11.3736 12.53 11.667 12.7053 11.9892 12.8782C12.3114 13.0511 12.6577 13.2072 13.028 13.3465C13.3983 13.4857 13.658 13.577 13.807 13.6202C13.9561 13.6634 14.211 13.7186 14.5717 13.7859C14.9324 13.8531 15.2041 13.8963 15.3868 13.9155C15.5696 13.9348 15.6946 13.9458 15.7619 13.9487L15.8629 13.9516L15.8601 13.93L15.8557 13.9083L15.8269 13.7283C15.8076 13.6082 15.798 13.4401 15.798 13.224C15.798 13.0079 15.8149 12.8086 15.8485 12.6261C15.8822 12.4436 15.9327 12.2587 16 12.0714C16.0673 11.8841 16.1332 11.7338 16.1977 11.6204C16.2631 11.5081 16.3487 11.3798 16.4545 11.2358C16.5603 11.0917 16.6973 10.9428 16.8656 10.7891C17.034 10.6354 17.2263 10.4986 17.4427 10.3785C17.6592 10.2585 17.8587 10.1672 18.0415 10.1048C18.2242 10.0423 18.3781 10.0015 18.5032 9.98231C18.6282 9.9631 18.6907 9.95205 18.6907 9.94917Z" fill="white"/>
</svg>
