<svg width="32" height="33" viewBox="0 0 32 33" fill="none" xmlns="http://www.w3.org/2000/svg">
<rect y="0.437012" width="32" height="32" rx="16" fill="#BB2525"/>
<path d="M16.3891 22.6414L12.7783 22.5739C11.6092 22.5504 10.4372 22.5973 9.29098 22.3537C7.54737 21.9897 7.42385 20.2049 7.29459 18.7078C7.11649 16.603 7.18544 14.4601 7.52154 12.3729C7.71128 11.2018 8.45797 10.503 9.61271 10.4269C13.5108 10.1509 17.4348 10.1836 21.3243 10.3124C21.735 10.3242 22.1486 10.3887 22.5537 10.4621C24.5531 10.8203 24.6018 12.8429 24.7314 14.5455C24.8607 16.2657 24.8061 17.9947 24.5591 19.7032C24.3609 21.1178 23.9816 22.3041 22.3813 22.4186C20.3762 22.5683 18.4171 22.6889 16.4063 22.6505C16.4064 22.6414 16.3949 22.6414 16.3891 22.6414ZM14.2663 19.0601C15.7773 18.1735 17.2595 17.3017 18.7619 16.421C17.2481 15.5344 15.7687 14.6626 14.2663 13.782V19.0601Z" fill="white"/>
</svg>
