<svg width="44" height="44" viewBox="0 0 44 44" fill="none" xmlns="http://www.w3.org/2000/svg">
<path d="M22 44C34.1503 44 44 34.1503 44 22C44 9.84974 34.1503 0 22 0C9.84974 0 0 9.84974 0 22C0 34.1503 9.84974 44 22 44Z" fill="#0068FF"/>
<path opacity="0.12" fill-rule="evenodd" clip-rule="evenodd" d="M43.175 22.5479L8.9375 36.2291L14.9187 42.6229C17.05 43.3104 19.3188 43.7229 21.6562 43.7229C33.4813 43.7229 43.0375 34.3041 43.175 22.5479Z" fill="url(#paint0_linear_1338_453)"/>
<path fill-rule="evenodd" clip-rule="evenodd" d="M37.3318 36.8479C40.9755 32.9979 43.4505 27.9104 43.4505 22.2041C43.4505 10.2416 33.7568 0.547852 21.7943 0.547852C17.0505 0.547852 12.9255 2.33535 9.35052 4.8791C5.22552 12.5791 5.43177 23.9228 10.5193 30.7291C10.5193 30.7291 10.5193 30.7291 10.5193 30.7979C11.4818 32.1729 10.5193 34.6479 9.14427 36.0229C8.93802 36.2291 9.00677 36.3666 9.35052 36.4354C11.3443 36.6416 13.888 36.0916 15.6755 35.1978C21.7943 38.5666 30.2505 39.0479 37.3318 36.8479Z" fill="white"/>
<path d="M20.2129 16.5H13.2004V18.0125H18.0816L13.2691 23.925C13.1316 24.1312 12.9941 24.3375 12.9941 24.8187V25.2313H19.5941C19.9379 25.2313 20.2129 24.9562 20.2129 24.6125V23.7875H15.1254L19.5941 18.15C19.6629 18.0813 19.8004 17.9438 19.8691 17.875V17.8063C20.1441 17.3938 20.2129 17.1187 20.2129 16.7062V16.5Z" fill="#0068FF"/>
<path d="M29.1496 25.1625H30.1121V16.5H28.5996V24.6813C28.6684 24.9563 28.8746 25.1625 29.1496 25.1625Z" fill="#0068FF"/>
<path d="M23.9941 18.4229C22.1379 18.4229 20.5566 19.9354 20.5566 21.8604C20.5566 23.7854 22.0691 25.2979 23.9941 25.2979C25.9191 25.2979 27.4316 23.7854 27.4316 21.8604C27.4316 19.9354 25.9191 18.4229 23.9941 18.4229ZM23.9941 23.8541C22.8941 23.8541 22.0004 22.9604 22.0004 21.8604C22.0004 20.7604 22.8941 19.8666 23.9941 19.8666C25.0941 19.8666 25.9879 20.7604 25.9879 21.8604C25.9879 22.9604 25.1629 23.8541 23.9941 23.8541Z" fill="#0068FF"/>
<path d="M34.582 18.3584C32.657 18.3584 31.1445 19.8709 31.1445 21.7959C31.1445 23.7209 32.657 25.2334 34.582 25.2334C36.507 25.2334 38.0195 23.7209 38.0195 21.7959C38.0195 19.8709 36.4383 18.3584 34.582 18.3584ZM34.582 23.8584C33.482 23.8584 32.5883 22.9646 32.5883 21.8646C32.5883 20.7646 33.482 19.8709 34.582 19.8709C35.682 19.8709 36.5758 20.7646 36.5758 21.8646C36.5758 22.8959 35.682 23.8584 34.582 23.8584Z" fill="#0068FF"/>
<path d="M26.6066 25.1625H27.4316V18.5625H26.0566V24.5438C26.0566 24.8875 26.3316 25.1625 26.6066 25.1625Z" fill="#0068FF"/>
<defs>
<linearGradient id="paint0_linear_1338_453" x1="25.8695" y1="29.0601" x2="28.7592" y2="33.7157" gradientUnits="userSpaceOnUse">
<stop/>
<stop offset="0.9379" stop-opacity="0.062076"/>
<stop offset="1" stop-opacity="0"/>
</linearGradient>
</defs>
</svg>
